**ABCDEFGHIJKLMNOPQRSTUVWXYZabcdefghijklmnopqrstuvwxyz**************************
**PARASOLID !"#$%&'()*+,-./:;<=>?@[\]^_`{|}~0123456789**************************
**PART1;
MC=unknown;
MC_MODEL=unknown;
MC_ID=unknown;
OS=unknown;
OS_RELEASE=unknown;
FRU=unknown;
APPL=File generated by HOOPS Exchange Version 9.1.2;
SITE=unknown;
USER=unknown;
FORMAT=text;
GUISE=transmit;
KEY=217-3422-STEP;
FILE=c:\tempstorage\4435432217594568\217-3422-STEP.iam.x_t;
DATE=unknown;
**PART2;
SCH=SCH_1100000_11004;
USFLD_SIZE=0;
**PART3;
**END_OF_HEADER*****************************************************************
T51 : TRANSMIT FILE created by modeller version 110000017 SCH_1100000_110040 10
 1 394 393 394 0 0 0 0 0 1e3 1e-008 0 0 0 1 0 1 14 10 2 11 11 6 0 0 0 0 0 1e3 1e
-008 14 0 0 1 0 1 0 80 1 3 0 4 9000 0 0 0 0 3 6 0 0 TFTTTTTTFFFFTT3 79 25 4 H3DX
_BRIDGE/PERSISTENT_ID81 1 5 5 3 2 0 11 0 0 8 70 6 6 2 0 0 4 2 20 4 7 7 1 T74 20
 7 2 0 5 11 0 0 0 0 0 0 0 0 0 0 0 0 0 0 0 0 0 0 84 1 8 180 1 9 3 10 8017 0 0 0 0
 0 0 0 0 TTTTTTTTTTTTTF3 79 13 10 SDL/TYSA_NAME81 1 11 11 9 2 5 0 0 0 12 84 10 1
2 217-2731_1100 13 13 14 0 0 .7511822268028854 -1.019073138516421e-017 -.6600948
887360502 -.6600948887360502 1.198025902845683e-016 -.7511822268028854 8.6736173
79884039e-017 1 8.326672684688675e-017 8.812395257962182e-020 -.0470408 -8.67361
7379884036e-019 1 3 ?11 14 14 0 1 2 13 1 23 0 0 0 10 15 20 20 17 0 0 0 0 0 1e3 1
e-008 23 0 0 1 0 1 0 81 1 16 16 3 15 0 20 0 0 19 70 17 17 15 0 0 4 2 20 4 18 18
 1 T74 20 18 2 0 16 20 0 0 0 0 0 0 0 0 0 0 0 0 0 0 0 0 0 0 84 1 19 281 1 20 20 9
 15 16 0 0 0 21 84 10 21 217-2733_2100 22 22 23 0 0 1.792722578564601e-032 -.931
5523092590302 .3636073364416184 -6.842277657836021e-049 .3636073364416184 .93155
23092590302 -1 -1.670014857922657e-032 6.518470817706242e-033 -1.232595164407831
e-034 -2.465190328815662e-034 .0079375 1 3 ?11 23 23 0 1 15 22 1 32 14 0 0 10 24
 29 29 26 0 0 0 0 0 1e3 1e-008 32 0 0 1 0 1 0 81 1 25 25 3 24 0 29 0 0 28 70 26
 26 24 0 0 4 2 20 4 27 27 1 T74 20 27 2 0 25 29 0 0 0 0 0 0 0 0 0 0 0 0 0 0 0 0
 0 0 84 1 28 381 1 29 29 9 24 25 0 0 0 30 84 10 30 217-2733_3100 31 31 32 0 0 -2
.151618118990309e-032 .8132841952369556 -.5818666666666665 -6.84227765783602e-04
8 .5818666666666665 .8132841952369556 1 1.749877010360286e-032 -1.25195486283649
4e-032 -2.959594672084353e-033 1.479114197289397e-033 .061976 1 3 ?11 32 32 0 1
 24 31 1 41 23 0 0 10 33 38 38 35 0 0 0 0 0 1e3 1e-008 41 0 0 1 0 1 0 81 1 34 34
 3 33 0 38 0 0 37 70 35 35 33 0 0 4 2 20 4 36 36 1 T74 20 36 2 0 34 38 0 0 0 0 0
 0 0 0 0 0 0 0 0 0 0 0 0 0 84 1 37 481 1 38 38 9 33 34 0 0 0 39 84 10 39 217-273
4_4100 40 40 41 0 0 1 - 0 0 0 -1 0 1 0 0 -.0470408 .0904875 1 3 ?11 41 41 0 1 33
 40 1 50 32 0 0 10 42 47 47 44 0 0 0 0 0 1e3 1e-008 50 0 0 1 0 1 0 81 1 43 43 3
 42 0 47 0 0 46 70 44 44 42 0 0 4 2 20 4 45 45 1 T74 20 45 2 0 43 47 0 0 0 0 0 0
 0 0 0 0 0 0 0 0 0 0 0 0 84 1 46 581 1 47 47 9 42 43 0 0 0 48 84 18 48 217-3099-
001_12t_5100 49 49 50 0 0 .9985879463684697 -.05312356696987138 0 .0531235669698
7138 .9985879463684697 - 0 0 1 -.03663879581747765 -.01454641239911694 .015811 1
 3 ?11 50 50 0 1 42 49 1 59 41 0 0 10 51 56 56 53 0 0 0 0 0 1e3 1e-008 59 0 0 1
 0 1 0 81 1 52 52 3 51 0 56 0 0 55 70 53 53 51 0 0 4 2 20 4 54 54 1 T74 20 54 2
 0 52 56 0 0 0 0 0 0 0 0 0 0 0 0 0 0 0 0 0 0 84 1 55 681 1 56 56 9 51 52 0 0 0 5
7 84 18 57 217-3099-001_12t_6100 58 58 59 0 0 .9985879463684697 .053123566969871
48 - -.05312356696987148 .9985879463684697 0 0 0 1 .03663879581747763 -.01454641
239911693 .015811 1 3 ?11 59 59 0 1 51 58 1 68 50 0 0 10 60 65 65 62 0 0 0 0 0 1
e3 1e-008 68 0 0 1 0 1 0 81 1 61 61 3 60 0 65 0 0 64 70 62 62 60 0 0 4 2 20 4 63
 63 1 T74 20 63 2 0 61 65 0 0 0 0 0 0 0 0 0 0 0 0 0 0 0 0 0 0 84 1 64 881 1 65 6
5 9 60 61 0 0 0 66 84 18 66 217-3100-001_14t_8100 67 67 68 0 0 -.413391440238253
8 .9105534125671828 1.112336021339473e-017 -.9105534125671828 -.4133914402382538
 -3.327009668190916e-017 -2.569589817124836e-017 -2.388198678572097e-017 1 1.804
716457513177e-018 2.112651139301242e-019 .02701925 1 3 ?11 68 68 0 1 60 67 1 77
 59 0 0 10 69 74 74 71 0 0 0 0 0 1e3 1e-008 77 0 0 1 0 1 0 81 1 70 70 3 69 0 74
 0 0 73 70 71 71 69 0 0 4 2 20 4 72 72 1 T74 20 72 2 0 70 74 0 0 0 0 0 0 0 0 0 0
 0 0 0 0 0 0 0 0 84 1 73 981 1 74 74 9 69 70 0 0 0 75 84 23 75 217-2711-002 Rev1
_50t_9100 76 76 77 0 0 -.413391440238254 .9105534125671828 1.112336021339475e-01
7 -.9105534125671828 -.413391440238254 -3.327009668190915e-017 -2.56958981712483
4e-017 -2.388198678572099e-017 1 1.663732316152486e-018 6.329502813346526e-019 .
01434465 1 3 ?11 77 77 0 1 69 76 1 86 68 0 0 10 78 83 83 80 0 0 0 0 0 1e3 1e-008
 86 0 0 1 0 1 0 81 1 79 79 3 78 0 83 0 0 82 70 80 80 78 0 0 4 2 20 4 81 81 1 T74
 20 81 2 0 79 83 0 0 0 0 0 0 0 0 0 0 0 0 0 0 0 0 0 0 84 2 82 1081 1 83 83 9 78 7
9 0 0 0 84 84 24 84 217-2714-002 Rev1_60t_10100 85 85 86 0 0 .9209526070550793 .
3896746021470384 - -.3896746021470384 .9209526070550793 0 0 0 1 -2.8499286264249
69e-019 -.0470408 .0269621 1 3 ?11 86 86 0 1 78 85 1 95 77 0 0 10 87 92 92 89 0
 0 0 0 0 1e3 1e-008 95 0 0 1 0 1 0 81 1 88 88 3 87 0 92 0 0 91 70 89 89 87 0 0 4
 2 20 4 90 90 1 T74 20 90 2 0 88 92 0 0 0 0 0 0 0 0 0 0 0 0 0 0 0 0 0 0 84 2 91
 1181 1 92 92 9 87 88 0 0 0 93 84 11 93 217-2000_11100 94 94 95 0 0 3.1306461895
10731e-018 -.05312356696987143 .9985879463684697 1.665040247369795e-016 .9985879
463684697 .05312356696987143 -1 1.661026010316777e-016 1.197151325805785e-017 -.
03663879581747765 -.01454641239911694 -1.616920852239404e-018 1 3 ?11 95 95 0 1
 87 94 1 104 86 0 0 10 96 101 101 98 0 0 0 0 0 1e3 1e-008 104 0 0 1 0 1 0 81 1 9
7 97 3 96 0 101 0 0 100 70 98 98 96 0 0 4 2 20 4 99 99 1 T74 20 99 2 0 97 101 0
 0 0 0 0 0 0 0 0 0 0 0 0 0 0 0 0 0 84 2 100 1381 1 101 101 9 96 97 0 0 0 102 84
 11 102 217-2000_13100 103 103 104 0 0 2.659969900690476e-018 .05312356696987157
 .9985879463684697 1.109904329399877e-016 .9985879463684697 -.05312356696987157
 -1 1.109750155852469e-016 -3.239993816770031e-018 .03663879581747764 -.01454641
239911693 1.925929944387236e-034 1 3 ?11 104 104 0 1 96 103 1 113 95 0 0 10 105
 110 110 107 0 0 0 0 0 1e3 1e-008 113 0 0 1 0 1 0 81 1 106 106 3 105 0 110 0 0 1
09 70 107 107 105 0 0 4 2 20 4 108 108 1 T74 20 108 2 0 106 110 0 0 0 0 0 0 0 0
 0 0 0 0 0 0 0 0 0 0 84 2 109 1481 1 110 110 9 105 106 0 0 0 111 84 20 111 217-3
421-001 Rev1_14100 112 112 113 0 0 1 - 0 0 1 0 - 0 1 0 0 0 1 0 ?11 113 113 0 1 1
05 112 1 122 104 0 0 10 114 119 119 116 0 0 0 0 0 1e3 1e-008 122 0 0 1 0 1 0 81
 1 115 115 3 114 0 119 0 0 118 70 116 116 114 0 0 4 2 20 4 117 117 1 T74 20 117
 2 0 115 119 0 0 0 0 0 0 0 0 0 0 0 0 0 0 0 0 0 0 84 2 118 1581 1 119 119 9 114 1
15 0 0 0 120 84 20 120 217-3421-002 Rev1_15100 121 121 122 0 0 -1 1.110223024625
157e-016 0 1.110223024625157e-016 1 0 0 0 -1 -1.97215226305253e-033 -4.930380657
631324e-034 .0699135 1 3 ?11 122 122 0 1 114 121 1 131 113 0 0 10 123 128 128 12
5 0 0 0 0 0 1e3 1e-008 131 0 0 1 0 1 0 81 1 124 124 3 123 0 128 0 0 127 70 125 1
25 123 0 0 4 2 20 4 126 126 1 T74 20 126 2 0 124 128 0 0 0 0 0 0 0 0 0 0 0 0 0 0
 0 0 0 0 84 2 127 1681 1 128 128 9 123 124 0 0 0 129 84 20 129 217-3421-004 Rev1
_16100 130 130 131 0 0 -.4144596420447344 -.9100676926010234 0 .9100676926010234
 -.4144596420447344 0 0 0 1 6.609296443471638e-020 -.0470408 .09048749999999999
 1 3 ?11 131 131 0 1 123 130 1 140 122 0 0 10 132 137 137 134 0 0 0 0 0 1e3 1e-0
08 140 0 0 1 0 1 0 81 1 133 133 3 132 0 137 0 0 136 70 134 134 132 0 0 4 2 20 4
 135 135 1 T74 20 135 2 0 133 137 0 0 0 0 0 0 0 0 0 0 0 0 0 0 0 0 0 0 84 2 136 1
781 1 137 137 9 132 133 0 0 0 138 84 20 138 217-3422-001 Rev1_17100 139 139 140
 0 0 -.9105534125671828 -.413391440238254 5.762549782579551e-017 .41339144023825
4 -.9105534125671828 2.157041537713703e-032 5.247109369616087e-017 2.38218875406
52e-017 1 1.966830272666683e-018 9.244463733058732e-035 .03495675 1 3 ?11 140 14
0 0 1 132 139 1 149 131 0 0 10 141 146 146 143 0 0 0 0 0 1e3 1e-008 149 0 0 1 0
 1 0 81 1 142 142 3 141 0 146 0 0 145 70 143 143 141 0 0 4 2 20 4 144 144 1 T74
 20 144 2 0 142 146 0 0 0 0 0 0 0 0 0 0 0 0 0 0 0 0 0 0 84 2 145 1881 1 146 146
 9 141 142 0 0 0 147 84 20 147 217-3422-004 Rev2_18100 148 148 149 0 0 1 - 0 0 1
 0 - 0 1 1.734723475976807e-018 -.04704080000000002 .09683750000000002 1 1 ?11 1
49 149 0 1 141 148 1 158 140 0 0 10 150 155 155 152 0 0 0 0 0 1e3 1e-008 158 0 0
 1 0 1 0 81 1 151 151 3 150 0 155 0 0 154 70 152 152 150 0 0 4 2 20 4 153 153 1
 T74 20 153 2 0 151 155 0 0 0 0 0 0 0 0 0 0 0 0 0 0 0 0 0 0 84 2 154 1981 1 155
 155 9 150 151 0 0 0 156 84 20 156 217-3421-009 Rev1_19100 157 157 158 0 0 -9.68
4181523197753e-017 .8531193728492298 -.5217157613771476 2.883582890391177e-017 -
.5217157613771476 -.8531193728492298 -1 -9.766173510783115e-017 2.59234970968033
1e-017 .03528945721644292 -.03991054623687607 .006350000000000002 1 3 ?11 158 15
8 0 1 150 157 1 167 149 0 0 10 159 164 164 161 0 0 0 0 0 1e3 1e-008 167 0 0 1 0
 1 0 81 1 160 160 3 159 0 164 0 0 163 70 161 161 159 0 0 4 2 20 4 162 162 1 T74
 20 162 2 0 160 164 0 0 0 0 0 0 0 0 0 0 0 0 0 0 0 0 0 0 84 2 163 2281 1 164 164
 9 159 160 0 0 0 165 84 20 165 217-3421-009 Rev1_22100 166 166 167 0 0 -9.684181
523197753e-017 .8531193728492298 -.5217157613771476 2.883582890391177e-017 -.521
7157613771476 -.8531193728492298 -1 -9.766173510783115e-017 2.592349709680331e-0
17 -.03528945721644292 -.03991054623687606 .00635 1 3 ?11 167 167 0 1 159 166 1
 176 158 0 0 10 168 173 173 170 0 0 0 0 0 1e3 1e-008 176 0 0 1 0 1 0 81 1 169 16
9 3 168 0 173 0 0 172 70 170 170 168 0 0 4 2 20 4 171 171 1 T74 20 171 2 0 169 1
73 0 0 0 0 0 0 0 0 0 0 0 0 0 0 0 0 0 0 84 2 172 2381 1 173 173 9 168 169 0 0 0 1
74 84 20 174 217-3421-010 Rev1_23100 175 175 176 0 0 .6081607106865679 -9.974940
047628614e-017 .7938139265452634 -.7938139265452634 -1.471418069599835e-017 .608
1607106865679 -4.898334473003028e-017 -1 -8.81310498518656e-017 .05715 -.0470408
 -1.517368422826029e-017 1 3 ?11 176 176 0 1 168 175 1 185 167 0 0 10 177 182 18
2 179 0 0 0 0 0 1e3 1e-008 185 0 0 1 0 1 0 81 1 178 178 3 177 0 182 0 0 181 70 1
79 179 177 0 0 4 2 20 4 180 180 1 T74 20 180 2 0 178 182 0 0 0 0 0 0 0 0 0 0 0 0
 0 0 0 0 0 0 84 2 181 2481 1 182 182 9 177 178 0 0 0 183 84 20 183 217-3421-010
 Rev1_24100 184 184 185 0 0 .6081607106865679 -9.974940047628614e-017 .793813926
5452634 -.7938139265452634 -1.471418069599835e-017 .6081607106865679 -4.89833447
3003028e-017 -1 -8.81310498518656e-017 -.05715 -.04704079999999999 -2.6020852139
65211e-018 1 3 ?11 185 185 0 1 177 184 1 194 176 0 0 10 186 191 191 188 0 0 0 0
 0 1e3 1e-008 194 0 0 1 0 1 0 81 1 187 187 3 186 0 191 0 0 190 70 188 188 186 0
 0 4 2 20 4 189 189 1 T74 20 189 2 0 187 191 0 0 0 0 0 0 0 0 0 0 0 0 0 0 0 0 0 0
 84 2 190 2581 1 191 191 9 186 187 0 0 0 192 84 30 192 217-3421-011 Rev2_97633A2
00_25100 193 193 194 0 0 8.673617379884039e-019 -.2448719211856561 .969555435349
0294 6.01853107621011e-034 .9695554353490294 .2448719211856561 -1 -2.12392535144
1496e-019 8.40955287480438e-019 6.647850672725221e-020 -.0470408 -.0004445000000
000005 1 3 ?11 194 194 0 1 186 193 1 203 185 0 0 10 195 200 200 197 0 0 0 0 0 1e
3 1e-008 203 0 0 1 0 1 0 81 1 196 196 3 195 0 200 0 0 199 70 197 197 195 0 0 4 2
 20 4 198 198 1 T74 20 198 2 0 196 200 0 0 0 0 0 0 0 0 0 0 0 0 0 0 0 0 0 0 84 2
 199 2681 1 200 200 9 195 196 0 0 0 201 84 20 201 217-3422-005 Rev1_26100 202 20
2 203 0 0 0 -.7097629882753516 -.7044405585103993 0 -.7044405585103993 .70976298
82753516 -1 - 0 .05715 -.04704080000000002 .073025 1 3 ?11 203 203 0 1 195 202 1
 212 194 0 0 10 204 209 209 206 0 0 0 0 0 1e3 1e-008 212 0 0 1 0 1 0 81 1 205 20
5 3 204 0 209 0 0 208 70 206 206 204 0 0 4 2 20 4 207 207 1 T74 20 207 2 0 205 2
09 0 0 0 0 0 0 0 0 0 0 0 0 0 0 0 0 0 0 84 2 208 2781 1 209 209 9 204 205 0 0 0 2
10 84 20 210 217-3422-005 Rev1_27100 211 211 212 0 0 0 -.7097629882753516 -.7044
405585103993 0 -.7044405585103993 .7097629882753516 -1 - 0 -.05715 -.04704079999
999999 .073025 1 3 ?11 212 212 0 1 204 211 1 221 203 0 0 10 213 218 218 215 0 0
 0 0 0 1e3 1e-008 221 0 0 1 0 1 0 81 1 214 214 3 213 0 218 0 0 217 70 215 215 21
3 0 0 4 2 20 4 216 216 1 T74 20 216 2 0 214 218 0 0 0 0 0 0 0 0 0 0 0 0 0 0 0 0
 0 0 84 2 217 2881 1 218 218 9 213 214 0 0 0 219 84 20 219 217-3422-006 Rev1_281
00 220 220 221 0 0 -2.77555756156289e-017 -.2756051054518023 -.9612709429962507
 7.703719777548943e-033 -.9612709429962507 .2756051054518023 -1 7.64957834442086
6e-018 2.668062834543933e-017 .03801184736134541 .01080861889272374 .06985 1 3 ?
11 221 221 0 1 213 220 1 230 212 0 0 10 222 227 227 224 0 0 0 0 0 1e3 1e-008 230
 0 0 1 0 1 0 81 1 223 223 3 222 0 227 0 0 226 70 224 224 222 0 0 4 2 20 4 225 22
5 1 T74 20 225 2 0 223 227 0 0 0 0 0 0 0 0 0 0 0 0 0 0 0 0 0 0 84 2 226 2981 1 2
27 227 9 222 223 0 0 0 228 84 20 228 217-3422-006 Rev1_29100 229 229 230 0 0 -2.
77555756156289e-017 -.2756051054518023 -.9612709429962507 7.703719777548943e-033
 -.9612709429962507 .2756051054518023 -1 7.649578344420866e-018 2.66806283454393
3e-017 -.0380118473613454 .01080861889272373 .06985 1 3 ?11 230 230 0 1 222 229
 1 239 221 0 0 10 231 236 236 233 0 0 0 0 0 1e3 1e-008 239 0 0 1 0 1 0 81 1 232
 232 3 231 0 236 0 0 235 70 233 233 231 0 0 4 2 20 4 234 234 1 T74 20 234 2 0 23
2 236 0 0 0 0 0 0 0 0 0 0 0 0 0 0 0 0 0 0 84 2 235 3081 1 236 236 9 231 232 0 0
 0 237 84 20 237 217-3422-007 Rev1_30100 238 238 239 0 0 2.379459466571408e-016
 -.455059065205955 -.8904612552906963 1.376499576728322e-016 .8904612552906963 -
.455059065205955 1 -1.429249404471687e-017 2.745205074158889e-016 .0238125 -.047
04080000000002 .09519928713252103 1 3 ?11 239 239 0 1 231 238 1 248 230 0 0 10 2
40 245 245 242 0 0 0 0 0 1e3 1e-008 248 0 0 1 0 1 0 81 1 241 241 3 240 0 245 0 0
 244 70 242 242 240 0 0 4 2 20 4 243 243 1 T74 20 243 2 0 241 245 0 0 0 0 0 0 0
 0 0 0 0 0 0 0 0 0 0 0 84 2 244 3181 1 245 245 9 240 241 0 0 0 246 84 20 246 217
-3422-007 Rev1_31100 247 247 248 0 0 2.325480804306294e-016 -.4923688898317296 -
.8703866246248677 1.476821941616136e-016 .8703866246248677 -.4923688898317296 1
 -1.404116629939244e-017 2.751208567762754e-016 -.0238125 -.04704080000000002 .0
9519928713252103 1 3 ?11 248 248 0 1 240 247 1 257 239 0 0 10 249 254 254 251 0
 0 0 0 0 1e3 1e-008 257 0 0 1 0 1 0 81 1 250 250 3 249 0 254 0 0 253 70 251 251
 249 0 0 4 2 20 4 252 252 1 T74 20 252 2 0 250 254 0 0 0 0 0 0 0 0 0 0 0 0 0 0 0
 0 0 0 84 2 253 3281 1 254 254 9 249 250 0 0 0 255 84 20 255 217-3422-002 Rev1_3
2100 256 256 257 0 0 -.5818666666666668 .8132841952369554 0 -.8132841952369554 -
.5818666666666668 0 0 0 1 -.0380118473613454 .01080861889272373 .0349885 1 3 ?11
 257 257 0 1 249 256 1 266 248 0 0 10 258 263 263 260 0 0 0 0 0 1e3 1e-008 266 0
 0 1 0 1 0 81 1 259 259 3 258 0 263 0 0 262 70 260 260 258 0 0 4 2 20 4 261 261
 1 T74 20 261 2 0 259 263 0 0 0 0 0 0 0 0 0 0 0 0 0 0 0 0 0 0 84 2 262 3381 1 26
3 263 9 258 259 0 0 0 264 84 20 264 217-3422-002 Rev1_33100 265 265 266 0 0 -.58
18666666666665 -.8132841952369556 0 .8132841952369556 -.5818666666666665 0 0 0 1
 .0380118473613454 .01080861889272374 .0349885 1 3 ?11 266 266 0 1 258 265 1 275
 257 0 0 10 267 272 272 269 0 0 0 0 0 1e3 1e-008 275 0 0 1 0 1 0 81 1 268 268 3
 267 0 272 0 0 271 70 269 269 267 0 0 4 2 20 4 270 270 1 T74 20 270 2 0 268 272
 0 0 0 0 0 0 0 0 0 0 0 0 0 0 0 0 0 0 84 2 271 3481 1 272 272 9 267 268 0 0 0 273
 84 20 273 217-3422-003 Rev1_34100 274 274 275 0 0 1 - 0 0 1 0 - 0 1 -.05715 -.0
470408 .03492499999999998 1 1 ?11 275 275 0 1 267 274 1 284 266 0 0 10 276 281 2
81 278 0 0 0 0 0 1e3 1e-008 284 0 0 1 0 1 0 81 1 277 277 3 276 0 281 0 0 280 70
 278 278 276 0 0 4 2 20 4 279 279 1 T74 20 279 2 0 277 281 0 0 0 0 0 0 0 0 0 0 0
 0 0 0 0 0 0 0 84 2 280 3581 1 281 281 9 276 277 0 0 0 282 84 20 282 217-3422-00
3 Rev1_35100 283 283 284 0 0 .8531616662499236 -.5216465961181518 0 .52164659611
81518 .8531616662499236 - 0 0 1 .05715 -.0470408 .03492499999999999 1 3 ?11 284
 284 0 1 276 283 1 293 275 0 0 10 285 290 290 287 0 0 0 0 0 1e3 1e-008 293 0 0 1
 0 1 0 81 1 286 286 3 285 0 290 0 0 289 70 287 287 285 0 0 4 2 20 4 288 288 1 T7
4 20 288 2 0 286 290 0 0 0 0 0 0 0 0 0 0 0 0 0 0 0 0 0 0 84 2 289 3681 1 290 290
 9 285 286 0 0 0 291 84 20 291 217-3257-001 Rev1_36100 292 292 293 0 0 1 - 0 0 1
 0 - 0 1 -3.960726061361109e-018 -.04704080000000002 .03477895 1 1 ?11 293 293 0
 1 285 292 1 302 284 0 0 10 294 299 299 296 0 0 0 0 0 1e3 1e-008 302 0 0 1 0 1 0
 81 1 295 295 3 294 0 299 0 0 298 70 296 296 294 0 0 4 2 20 4 297 297 1 T74 20 2
97 2 0 295 299 0 0 0 0 0 0 0 0 0 0 0 0 0 0 0 0 0 0 84 2 298 3781 1 299 299 9 294
 295 0 0 0 300 84 20 300 217-2758-001 Rev1_37100 301 301 302 0 0 -.3575801423710
239 -.9338824560842325 0 .9338824560842325 -.3575801423710239 0 0 0 1 -1.5178830
41479706e-017 -.04704080000000002 .05549910160000003 1 3 ?11 302 302 0 1 294 301
 1 311 293 0 0 10 303 308 308 305 0 0 0 0 0 1e3 1e-008 311 0 0 1 0 1 0 81 1 304
 304 3 303 0 308 0 0 307 70 305 305 303 0 0 4 2 20 4 306 306 1 T74 20 306 2 0 30
4 308 0 0 0 0 0 0 0 0 0 0 0 0 0 0 0 0 0 0 84 2 307 3881 1 308 308 9 303 304 0 0
 0 309 84 20 309 217-3259-001 Rev1_38100 310 310 311 0 0 -.3513172428177284 -.93
62564792293558 0 .9362564792293558 -.3513172428177284 0 0 0 1 -2.15485181781494e
-018 -.0470408 .06026160160000003 1 3 ?11 311 311 0 1 303 310 1 320 302 0 0 10 3
12 317 317 314 0 0 0 0 0 1e3 1e-008 320 0 0 1 0 1 0 81 1 313 313 3 312 0 317 0 0
 316 70 314 314 312 0 0 4 2 20 4 315 315 1 T74 20 315 2 0 313 317 0 0 0 0 0 0 0
 0 0 0 0 0 0 0 0 0 0 0 84 2 316 3981 1 317 317 9 312 313 0 0 0 318 84 20 318 217
-3261-001 Rev1_39100 319 319 320 0 0 1 - 0 0 1 0 - 0 1 -3.74049749507499e-018 -.
04704080000000002 .0142875 1 1 ?11 320 320 0 1 312 319 1 329 311 0 0 10 321 326
 326 323 0 0 0 0 0 1e3 1e-008 329 0 0 1 0 1 0 81 1 322 322 3 321 0 326 0 0 325 7
0 323 323 321 0 0 4 2 20 4 324 324 1 T74 20 324 2 0 322 326 0 0 0 0 0 0 0 0 0 0
 0 0 0 0 0 0 0 0 84 2 325 4081 1 326 326 9 321 322 0 0 0 327 84 20 327 217-3263-
001 Rev1_40100 328 328 329 0 0 .7629182340487329 .6464949869534666 - -.646494986
9534666 .7629182340487329 0 0 0 1 0 -.0470408 .0777875 1 3 ?11 329 329 0 1 321 3
28 1 338 320 0 0 10 330 335 335 332 0 0 0 0 0 1e3 1e-008 338 0 0 1 0 1 0 81 1 33
1 331 3 330 0 335 0 0 334 70 332 332 330 0 0 4 2 20 4 333 333 1 T74 20 333 2 0 3
31 335 0 0 0 0 0 0 0 0 0 0 0 0 0 0 0 0 0 0 84 2 334 4281 1 335 335 9 330 331 0 0
 0 336 84 20 336 217-2761-001 rev1_42100 337 337 338 0 0 .9985879463684697 -.053
12356696987131 8.823962649775735e-018 .05312356696987131 .9985879463684697 -1.65
868055250684e-016 3.944304526105059e-031 1.661026010316774e-016 1 -.036840665371
96316 -.01075177820291676 .0161 1 3 ?11 338 338 0 1 330 337 1 347 329 0 0 10 339
 344 344 341 0 0 0 0 0 1e3 1e-008 347 0 0 1 0 1 0 81 1 340 340 3 339 0 344 0 0 3
43 70 341 341 339 0 0 4 2 20 4 342 342 1 T74 20 342 2 0 340 344 0 0 0 0 0 0 0 0
 0 0 0 0 0 0 0 0 0 0 84 2 343 4381 1 344 344 9 339 340 0 0 0 345 84 20 345 217-2
761-001 rev1_43100 346 346 347 0 0 .9985879463684697 .05312356696987144 -5.89538
8672425079e-018 -.05312356696987144 .9985879463684697 -1.108183129114803e-016 -2
.935117235246147e-031 1.109750155852466e-016 1 .03684066537196315 -.010751778202
91676 .0161 1 3 ?11 347 347 0 1 339 346 1 356 338 0 0 10 348 353 353 350 0 0 0 0
 0 1e3 1e-008 356 0 0 1 0 1 0 81 1 349 349 3 348 0 353 0 0 352 70 350 350 348 0
 0 4 2 20 4 351 351 1 T74 20 351 2 0 349 353 0 0 0 0 0 0 0 0 0 0 0 0 0 0 0 0 0 0
 84 2 352 4581 1 353 353 9 348 349 0 0 0 354 84 25 354 217-2614-002_98430A132_45
100 355 355 356 0 0 2.775557561562891e-017 -.07811067986771293 .9969446933960798
 2.636779683484745e-016 .9969446933960798 .07811067986771293 -1 2.60704344429014
7e-016 4.826683919599152e-017 .03663879581747765 -.01454641239911692 .0062859999
99999997 1 3 ?11 356 356 0 1 348 355 1 365 347 0 0 10 357 362 362 359 0 0 0 0 0
 1e3 1e-008 365 0 0 1 0 1 0 81 1 358 358 3 357 0 362 0 0 361 70 359 359 357 0 0
 4 2 20 4 360 360 1 T74 20 360 2 0 358 362 0 0 0 0 0 0 0 0 0 0 0 0 0 0 0 0 0 0 8
4 2 361 4681 1 362 362 9 357 358 0 0 0 363 84 25 363 217-2614-002_98430A132_4610
0 364 364 365 0 0 2.775557561562891e-017 -.07811067986771293 .9969446933960798 2
.636779683484745e-016 .9969446933960798 .07811067986771293 -1 2.607043444290147e
-016 4.826683919599152e-017 -.03663879581747765 -.01454641239911694 .00628599999
9999994 1 3 ?11 365 365 0 1 357 364 1 374 356 0 0 10 366 371 371 368 0 0 0 0 0 1
e3 1e-008 374 0 0 1 0 1 0 81 1 367 367 3 366 0 371 0 0 370 70 368 368 366 0 0 4
 2 20 4 369 369 1 T74 20 369 2 0 367 371 0 0 0 0 0 0 0 0 0 0 0 0 0 0 0 0 0 0 84
 2 370 4781 1 371 371 9 366 367 0 0 0 372 84 25 372 217-2614-002_98430A132_47100
 373 373 374 0 0 2.77555756156289e-017 -.07811067986771296 .9969446933960798 2.6
36779683484745e-016 .9969446933960798 .07811067986771296 -1 2.607043444290147e-0
16 4.826683919599151e-017 -.03663879581747765 -.01454641239911694 .0264027999999
9999 1 3 ?11 374 374 0 1 366 373 1 383 365 0 0 10 375 380 380 377 0 0 0 0 0 1e3
 1e-008 383 0 0 1 0 1 0 81 1 376 376 3 375 0 380 0 0 379 70 377 377 375 0 0 4 2
 20 4 378 378 1 T74 20 378 2 0 376 380 0 0 0 0 0 0 0 0 0 0 0 0 0 0 0 0 0 0 84 2
 379 4881 1 380 380 9 375 376 0 0 0 381 84 25 381 217-2614-002_98430A132_48100 3
82 382 383 0 0 2.77555756156289e-017 -.07811067986771296 .9969446933960798 2.636
779683484745e-016 .9969446933960798 .07811067986771296 -1 2.607043444290147e-016
 4.826683919599151e-017 .03663879581747763 -.01454641239911693 .0264027999999999
9 1 3 ?11 383 383 0 1 375 382 1 392 374 0 0 10 384 389 389 386 0 0 0 0 0 1e3 1e-
008 392 0 0 1 0 1 0 81 1 385 385 3 384 0 389 0 0 388 70 386 386 384 0 0 4 2 20 4
 387 387 1 T74 20 387 2 0 385 389 0 0 0 0 0 0 0 0 0 0 0 0 0 0 0 0 0 0 84 2 388 5
081 1 389 389 9 384 385 0 0 0 390 84 20 390 217-3257-001 Rev1_50100 391 391 392
 0 0 1 - 0 0 1 0 - 0 1 -2.15485181781494e-018 -.0470408 .06429375 1 1 ?11 392 39
2 0 1 384 391 1 0 383 0 0 81 1 393 393 9 1 0 0 0 0 396 70 394 394 1 0 0 4 1 20 4
 395 395 1 T74 20 395 1 0 393 0 0 0 0 0 0 0 0 0 0 0 0 0 0 0 0 0 0 0 84 17 396 21
7-3422-STEP.iam1 0 