**ABCDEFGHIJKLMNOPQRSTUVWXYZabcdefghijklmnopqrstuvwxyz**************************
**PARASOLID !"#$%&'()*+,-./:;<=>?@[\]^_`{|}~0123456789**************************
**PART1;
MC=unknown;
MC_MODEL=unknown;
MC_ID=unknown;
OS=unknown;
OS_RELEASE=unknown;
FRU=unknown;
APPL=File generated by HOOPS Exchange Version 9.1.2;
SITE=unknown;
USER=unknown;
FORMAT=text;
GUISE=transmit;
KEY=217-3421-STEP;
FILE=c:\tempstorage\3530508423131989\217-3421-STEP.iam.x_t;
DATE=unknown;
**PART2;
SCH=SCH_1100000_11004;
USFLD_SIZE=0;
**PART3;
**END_OF_HEADER*****************************************************************
T51 : TRANSMIT FILE created by modeller version 110000017 SCH_1100000_110040 10
 1 385 384 385 0 0 0 0 0 1e3 1e-008 0 0 0 1 0 1 14 10 2 11 11 6 0 0 0 0 0 1e3 1e
-008 14 0 0 1 0 1 0 80 1 3 0 4 9000 0 0 0 0 3 6 0 0 TFTTTTTTFFFFTT3 79 25 4 H3DX
_BRIDGE/PERSISTENT_ID81 1 5 5 3 2 0 11 0 0 8 70 6 6 2 0 0 4 2 20 4 7 7 1 T74 20
 7 2 0 5 11 0 0 0 0 0 0 0 0 0 0 0 0 0 0 0 0 0 0 84 1 8 180 1 9 3 10 8017 0 0 0 0
 0 0 0 0 TTTTTTTTTTTTTF3 79 13 10 SDL/TYSA_NAME81 1 11 11 9 2 5 0 0 0 12 84 10 1
2 217-2731_1100 13 13 14 0 0 .7511822268028854 -1.019073138516421e-017 -.6600948
887360502 -.6600948887360502 1.198025902845683e-016 -.7511822268028854 8.6736173
79884039e-017 1 8.326672684688675e-017 8.812395257962182e-020 -.0470408 -8.67361
7379884036e-019 1 3 ?11 14 14 0 1 2 13 1 23 0 0 0 10 15 20 20 17 0 0 0 0 0 1e3 1
e-008 23 0 0 1 0 1 0 81 1 16 16 3 15 0 20 0 0 19 70 17 17 15 0 0 4 2 20 4 18 18
 1 T74 20 18 2 0 16 20 0 0 0 0 0 0 0 0 0 0 0 0 0 0 0 0 0 0 84 1 19 281 1 20 20 9
 15 16 0 0 0 21 84 10 21 217-2733_2100 22 22 23 0 0 2.809470477077606e-016 .2036
160573203843 .9790508164550511 -1.225011303231929e-017 .9790508164550511 -.20361
60573203843 -1 4.521184700409726e-017 2.775557561562891e-016 0 0 .00793750000000
0021 1 3 ?11 23 23 0 1 15 22 1 32 14 0 0 10 24 29 29 26 0 0 0 0 0 1e3 1e-008 32
 0 0 1 0 1 0 81 1 25 25 3 24 0 29 0 0 28 70 26 26 24 0 0 4 2 20 4 27 27 1 T74 20
 27 2 0 25 29 0 0 0 0 0 0 0 0 0 0 0 0 0 0 0 0 0 0 84 1 28 381 1 29 29 9 24 25 0
 0 0 30 84 10 30 217-2733_3100 31 31 32 0 0 -5.700935418275734e-016 -.6343869717
101635 -.7730156338162951 -5.356335219943463e-018 .7730156338162951 -.6343869717
101635 1 -3.575193847265385e-016 -4.440892098500626e-016 2.467470672229413e-018
 -1.762479051592436e-019 .0333375 1 3 ?11 32 32 0 1 24 31 1 41 23 0 0 10 33 38 3
8 35 0 0 0 0 0 1e3 1e-008 41 0 0 1 0 1 0 81 1 34 34 3 33 0 38 0 0 37 70 35 35 33
 0 0 4 2 20 4 36 36 1 T74 20 36 2 0 34 38 0 0 0 0 0 0 0 0 0 0 0 0 0 0 0 0 0 0 84
 1 37 481 1 38 38 9 33 34 0 0 0 39 84 10 39 217-2734_4100 40 40 41 0 0 .44369508
30350509 -3.810471739503657e-018 .8961778134335392 -.8961778134335392 -1.7997014
09107568e-016 .4436950830350509 1.595945597898662e-016 -1 -8.326672684688675e-01
7 -4.406197628981087e-020 -.0470408 .041275 1 3 ?11 41 41 0 1 33 40 1 50 32 0 0
 10 42 47 47 44 0 0 0 0 0 1e3 1e-008 50 0 0 1 0 1 0 81 1 43 43 3 42 0 47 0 0 46
 70 44 44 42 0 0 4 2 20 4 45 45 1 T74 20 45 2 0 43 47 0 0 0 0 0 0 0 0 0 0 0 0 0
 0 0 0 0 0 84 1 46 581 1 47 47 9 42 43 0 0 0 48 84 18 48 217-2614-001_12t_5100 4
9 49 50 0 0 .9985879463684697 -.05312356696987156 0 .05312356696987156 .99858794
63684697 - 0 0 1 -.03663879581747765 -.01454641239911695 .0157856 1 3 ?11 50 50
 0 1 42 49 1 59 41 0 0 10 51 56 56 53 0 0 0 0 0 1e3 1e-008 59 0 0 1 0 1 0 81 1 5
2 52 3 51 0 56 0 0 55 70 53 53 51 0 0 4 2 20 4 54 54 1 T74 20 54 2 0 52 56 0 0 0
 0 0 0 0 0 0 0 0 0 0 0 0 0 0 0 84 1 55 681 1 56 56 9 51 52 0 0 0 57 84 18 57 217
-2614-001_12t_6100 58 58 59 0 0 .9985879463684697 .05312356696987182 - -.0531235
6696987182 .9985879463684697 0 0 0 1 .03663879581747763 -.01454641239911694 .015
7856 1 3 ?11 59 59 0 1 51 58 1 68 50 0 0 10 60 65 65 62 0 0 0 0 0 1e3 1e-008 68
 0 0 1 0 1 0 81 1 61 61 3 60 0 65 0 0 64 70 62 62 60 0 0 4 2 20 4 63 63 1 T74 20
 63 2 0 61 65 0 0 0 0 0 0 0 0 0 0 0 0 0 0 0 0 0 0 84 1 64 781 1 65 65 9 60 61 0
 0 0 66 84 18 66 217-2614-001_12t_7100 67 67 68 0 0 -.05000050403336326 .9987491
92538552 -4.363241766144338e-019 -.998749192538552 -.05000050403336326 -3.191197
350227027e-016 -3.187423941057936e-016 -1.552036917904975e-017 1 -3.177050952079
214e-005 .03942078719755256 .0157856 1 3 ?11 68 68 0 1 60 67 1 77 59 0 0 10 69 7
4 74 71 0 0 0 0 0 1e3 1e-008 77 0 0 1 0 1 0 81 1 70 70 3 69 0 74 0 0 73 70 71 71
 69 0 0 4 2 20 4 72 72 1 T74 20 72 2 0 70 74 0 0 0 0 0 0 0 0 0 0 0 0 0 0 0 0 0 0
 84 1 73 881 1 74 74 9 69 70 0 0 0 75 84 18 75 217-3100-001_14t_8100 76 76 77 0
 0 1 - 0 0 1 0 - 0 1 -3.52495810318487e-019 0 .02693669999999999 1 1 ?11 77 77 0
 1 69 76 1 86 68 0 0 10 78 83 83 80 0 0 0 0 0 1e3 1e-008 86 0 0 1 0 1 0 81 1 79
 79 3 78 0 83 0 0 82 70 80 80 78 0 0 4 2 20 4 81 81 1 T74 20 81 2 0 79 83 0 0 0
 0 0 0 0 0 0 0 0 0 0 0 0 0 0 0 84 1 82 981 1 83 83 9 78 79 0 0 0 84 84 23 84 217
-2711-002 Rev1_50t_9100 85 85 86 0 0 .9863984965514862 .1643715486359114 - -.164
3715486359114 .9863984965514862 0 0 0 1 3.983851493480437e-018 -8.30404538630215
e-018 .0142621 1 3 ?11 86 86 0 1 78 85 1 95 77 0 0 10 87 92 92 89 0 0 0 0 0 1e3
 1e-008 95 0 0 1 0 1 0 81 1 88 88 3 87 0 92 0 0 91 70 89 89 87 0 0 4 2 20 4 90 9
0 1 T74 20 90 2 0 88 92 0 0 0 0 0 0 0 0 0 0 0 0 0 0 0 0 0 0 84 2 91 1081 1 92 92
 9 87 88 0 0 0 93 84 24 93 217-2714-002 Rev1_60t_10100 94 94 95 0 0 -.5294951642
111854 .8483129558582552 0 -.8483129558582552 -.5294951642111854 0 0 0 1 -6.9388
93903907228e-018 -.04704079999999999 .02701289999999999 1 3 ?11 95 95 0 1 87 94
 1 104 86 0 0 10 96 101 101 98 0 0 0 0 0 1e3 1e-008 104 0 0 1 0 1 0 81 1 97 97 3
 96 0 101 0 0 100 70 98 98 96 0 0 4 2 20 4 99 99 1 T74 20 99 2 0 97 101 0 0 0 0
 0 0 0 0 0 0 0 0 0 0 0 0 0 0 84 2 100 1181 1 101 101 9 96 97 0 0 0 102 84 11 102
 217-2000_11100 103 103 104 0 0 3.130646189510731e-018 -.05312356696987144 .9985
879463684697 1.665040247369794e-016 .9985879463684697 .05312356696987144 -1 1.66
1026010316777e-016 1.197151325805786e-017 -.03663879581747764 -.0145464123991169
4 -1.616920852239404e-018 1 3 ?11 104 104 0 1 96 103 1 113 95 0 0 10 105 110 110
 107 0 0 0 0 0 1e3 1e-008 113 0 0 1 0 1 0 81 1 106 106 3 105 0 110 0 0 109 70 10
7 107 105 0 0 4 2 20 4 108 108 1 T74 20 108 2 0 106 110 0 0 0 0 0 0 0 0 0 0 0 0
 0 0 0 0 0 0 84 2 109 1281 1 110 110 9 105 106 0 0 0 111 84 11 111 217-2000_1210
0 112 112 113 0 0 2.416022724839205e-017 .998749192538552 -.05000050403336351 2.
772847190746063e-016 -.05000050403336351 -.998749192538552 -1 1.026563174139957e
-017 -2.781459128190224e-016 -3.177050952079012e-005 .03942078719755258 6.006886
884590754e-018 1 3 ?11 113 113 0 1 105 112 1 122 104 0 0 10 114 119 119 116 0 0
 0 0 0 1e3 1e-008 122 0 0 1 0 1 0 81 1 115 115 3 114 0 119 0 0 118 70 116 116 11
4 0 0 4 2 20 4 117 117 1 T74 20 117 2 0 115 119 0 0 0 0 0 0 0 0 0 0 0 0 0 0 0 0
 0 0 84 2 118 1381 1 119 119 9 114 115 0 0 0 120 84 11 120 217-2000_13100 121 12
1 122 0 0 2.659969900690543e-018 .05312356696987218 .9985879463684696 1.10990432
9399877e-016 .9985879463684696 -.05312356696987218 -1 1.109750155852469e-016 -3.
239993816770033e-018 .03663879581747762 -.01454641239911693 3.851859888774472e-0
34 1 3 ?11 122 122 0 1 114 121 1 131 113 0 0 10 123 128 128 125 0 0 0 0 0 1e3 1e
-008 131 0 0 1 0 1 0 81 1 124 124 3 123 0 128 0 0 127 70 125 125 123 0 0 4 2 20
 4 126 126 1 T74 20 126 2 0 124 128 0 0 0 0 0 0 0 0 0 0 0 0 0 0 0 0 0 0 84 2 127
 1481 1 128 128 9 123 124 0 0 0 129 84 20 129 217-3421-001 Rev1_14100 130 130 13
1 0 0 1 - 0 0 1 0 - 0 1 0 0 0 1 0 ?11 131 131 0 1 123 130 1 140 122 0 0 10 132 1
37 137 134 0 0 0 0 0 1e3 1e-008 140 0 0 1 0 1 0 81 1 133 133 3 132 0 137 0 0 136
 70 134 134 132 0 0 4 2 20 4 135 135 1 T74 20 135 2 0 133 137 0 0 0 0 0 0 0 0 0
 0 0 0 0 0 0 0 0 0 84 2 136 1581 1 137 137 9 132 133 0 0 0 138 84 20 138 217-342
1-002 Rev1_15100 139 139 140 0 0 -1 1.110223024625157e-016 0 1.110223024625157e-
016 1 0 0 0 -1 5.222577925678707e-018 -2.281221966210196e-018 .04127500000000002
 1 3 ?11 140 140 0 1 132 139 1 149 131 0 0 10 141 146 146 143 0 0 0 0 0 1e3 1e-0
08 149 0 0 1 0 1 0 81 1 142 142 3 141 0 146 0 0 145 70 143 143 141 0 0 4 2 20 4
 144 144 1 T74 20 144 2 0 142 146 0 0 0 0 0 0 0 0 0 0 0 0 0 0 0 0 0 0 84 2 145 1
681 1 146 146 9 141 142 0 0 0 147 84 20 147 217-3421-003 Rev1_16100 148 148 149
 0 0 .7218888758671784 .6920089962559891 -5.795807196169247e-016 -.6920089962559
891 .7218888758671784 6.047186199826557e-018 4.225775814108671e-016 3.9670967558
34796e-016 1 1.11739522131034e-017 -2.040032461726028e-019 .0206375 1 3 ?11 149
 149 0 1 141 148 1 158 140 0 0 10 150 155 155 152 0 0 0 0 0 1e3 1e-008 158 0 0 1
 0 1 0 81 1 151 151 3 150 0 155 0 0 154 70 152 152 150 0 0 4 2 20 4 153 153 1 T7
4 20 153 2 0 151 155 0 0 0 0 0 0 0 0 0 0 0 0 0 0 0 0 0 0 84 2 154 1781 1 155 155
 9 150 151 0 0 0 156 84 20 156 217-3421-004 Rev1_17100 157 157 158 0 0 .08593840
486045409 .9963004519571597 - -.9963004519571597 .08593840486045409 0 0 0 1 6.60
9296443471638e-020 -.0470408 .0904875 1 3 ?11 158 158 0 1 150 157 1 167 149 0 0
 10 159 164 164 161 0 0 0 0 0 1e3 1e-008 167 0 0 1 0 1 0 81 1 160 160 3 159 0 16
4 0 0 163 70 161 161 159 0 0 4 2 20 4 162 162 1 T74 20 162 2 0 160 164 0 0 0 0 0
 0 0 0 0 0 0 0 0 0 0 0 0 0 84 2 163 1881 1 164 164 9 159 160 0 0 0 165 84 20 165
 217-3421-005 Rev1_18100 166 166 167 0 0 1 - 0 0 1 0 - 0 1 -.03798813441851238 .
01081772143864219 .0206375 1 1 ?11 167 167 0 1 159 166 1 176 158 0 0 10 168 173
 173 170 0 0 0 0 0 1e3 1e-008 176 0 0 1 0 1 0 81 1 169 169 3 168 0 173 0 0 172 7
0 170 170 168 0 0 4 2 20 4 171 171 1 T74 20 171 2 0 169 173 0 0 0 0 0 0 0 0 0 0
 0 0 0 0 0 0 0 0 84 2 172 1981 1 173 173 9 168 169 0 0 0 174 84 20 174 217-3421-
005 Rev1_19100 175 175 176 0 0 1 - 0 0 1 0 - 0 1 .03798813441851238 .01081772143
864219 .0206375 1 1 ?11 176 176 0 1 168 175 1 185 167 0 0 10 177 182 182 179 0 0
 0 0 0 1e3 1e-008 185 0 0 1 0 1 0 81 1 178 178 3 177 0 182 0 0 181 70 179 179 17
7 0 0 4 2 20 4 180 180 1 T74 20 180 2 0 178 182 0 0 0 0 0 0 0 0 0 0 0 0 0 0 0 0
 0 0 84 2 181 2081 1 182 182 9 177 178 0 0 0 183 84 20 183 217-3421-006 Rev1_201
00 184 184 185 0 0 1 - 0 0 1 0 - 0 1 -.05715 -.0470408 .02063749999999999 1 1 ?1
1 185 185 0 1 177 184 1 194 176 0 0 10 186 191 191 188 0 0 0 0 0 1e3 1e-008 194
 0 0 1 0 1 0 81 1 187 187 3 186 0 191 0 0 190 70 188 188 186 0 0 4 2 20 4 189 18
9 1 T74 20 189 2 0 187 191 0 0 0 0 0 0 0 0 0 0 0 0 0 0 0 0 0 0 84 2 190 2181 1 1
91 191 9 186 187 0 0 0 192 84 20 192 217-3421-006 Rev1_21100 193 193 194 0 0 -.6
992795941214359 .7148482700862889 0 -.7148482700862889 -.6992795941214359 0 0 0
 1 .05715 -.0470408 .0206375 1 3 ?11 194 194 0 1 186 193 1 203 185 0 0 10 195 20
0 200 197 0 0 0 0 0 1e3 1e-008 203 0 0 1 0 1 0 81 1 196 196 3 195 0 200 0 0 199
 70 197 197 195 0 0 4 2 20 4 198 198 1 T74 20 198 2 0 196 200 0 0 0 0 0 0 0 0 0
 0 0 0 0 0 0 0 0 0 84 2 199 2281 1 200 200 9 195 196 0 0 0 201 84 20 201 217-326
1-001 Rev1_22100 202 202 203 0 0 .9963761125301245 -.08505670096680718 0 .085056
70096680718 .9963761125301245 - 0 0 1 -8.673617379884036e-019 -.0470407999999999
9 .0142875 1 3 ?11 203 203 0 1 195 202 1 212 194 0 0 10 204 209 209 206 0 0 0 0
 0 1e3 1e-008 212 0 0 1 0 1 0 81 1 205 205 3 204 0 209 0 0 208 70 206 206 204 0
 0 4 2 20 4 207 207 1 T74 20 207 2 0 205 209 0 0 0 0 0 0 0 0 0 0 0 0 0 0 0 0 0 0
 84 2 208 2381 1 209 209 9 204 205 0 0 0 210 84 20 210 217-3421-007 Rev1_23100 2
11 211 212 0 0 -6.013098976589056e-018 -.2970989726732809 .9548466894933874 -4.0
29991223940609e-018 .9548466894933874 .2970989726732809 -1 -2.061538250339729e-0
18 -6.938893903907228e-018 .05714999999999999 -.04704080000000002 .0444500000000
0003 1 3 ?11 212 212 0 1 204 211 1 221 203 0 0 10 213 218 218 215 0 0 0 0 0 1e3
 1e-008 221 0 0 1 0 1 0 81 1 214 214 3 213 0 218 0 0 217 70 215 215 213 0 0 4 2
 20 4 216 216 1 T74 20 216 2 0 214 218 0 0 0 0 0 0 0 0 0 0 0 0 0 0 0 0 0 0 84 2
 217 2481 1 218 218 9 213 214 0 0 0 219 84 20 219 217-3421-007 Rev1_24100 220 22
0 221 0 0 -6.013098976589056e-018 -.2970989726732809 .9548466894933874 -4.029991
223940609e-018 .9548466894933874 .2970989726732809 -1 -2.061538250339729e-018 -6
.938893903907228e-018 -.05714999999999999 -.04704079999999999 .04444999999999998
 1 3 ?11 221 221 0 1 213 220 1 230 212 0 0 10 222 227 227 224 0 0 0 0 0 1e3 1e-0
08 230 0 0 1 0 1 0 81 1 223 223 3 222 0 227 0 0 226 70 224 224 222 0 0 4 2 20 4
 225 225 1 T74 20 225 2 0 223 227 0 0 0 0 0 0 0 0 0 0 0 0 0 0 0 0 0 0 84 2 226 2
581 1 227 227 9 222 223 0 0 0 228 84 20 228 217-3421-008 Rev1_25100 229 229 230
 0 0 5.198050987165493e-017 .4076641955220399 .913131920200673 -1.97370495803292
e-017 .913131920200673 -.4076641955220399 -1 3.168062757271769e-018 5.5511151231
25783e-017 .03801184736134541 .01080861889272374 .04127500000000002 1 3 ?11 230
 230 0 1 222 229 1 239 221 0 0 10 231 236 236 233 0 0 0 0 0 1e3 1e-008 239 0 0 1
 0 1 0 81 1 232 232 3 231 0 236 0 0 235 70 233 233 231 0 0 4 2 20 4 234 234 1 T7
4 20 234 2 0 232 236 0 0 0 0 0 0 0 0 0 0 0 0 0 0 0 0 0 0 84 2 235 2681 1 236 236
 9 231 232 0 0 0 237 84 20 237 217-3421-008 Rev1_26100 238 238 239 0 0 4.8148248
6096809e-034 .1129833608826427 .9935968801096663 3.469446951953616e-018 .9935968
801096663 -.1129833608826427 -1 3.447231667167104e-018 -3.919897770357597e-019 -
.0380118473613454 .01080861889272373 .04127500000000002 1 3 ?11 239 239 0 1 231
 238 1 248 230 0 0 10 240 245 245 242 0 0 0 0 0 1e3 1e-008 248 0 0 1 0 1 0 81 1
 241 241 3 240 0 245 0 0 244 70 242 242 240 0 0 4 2 20 4 243 243 1 T74 20 243 2
 0 241 245 0 0 0 0 0 0 0 0 0 0 0 0 0 0 0 0 0 0 84 2 244 2781 1 245 245 9 240 241
 0 0 0 246 84 20 246 217-3421-009 Rev1_27100 247 247 248 0 0 1.66191435166461e-0
16 -.02774499459273142 .9996150335379364 1.463314958584214e-017 .999615033537936
4 .02774499459273142 -1 1.001653584396549e-017 1.665334536937735e-016 .035289457
21644287 -.03991054623687605 .006350000000000002 1 3 ?11 248 248 0 1 240 247 1 2
57 239 0 0 10 249 254 254 251 0 0 0 0 0 1e3 1e-008 257 0 0 1 0 1 0 81 1 250 250
 3 249 0 254 0 0 253 70 251 251 249 0 0 4 2 20 4 252 252 1 T74 20 252 2 0 250 25
4 0 0 0 0 0 0 0 0 0 0 0 0 0 0 0 0 0 0 84 2 253 2881 1 254 254 9 249 250 0 0 0 25
5 84 20 255 217-3421-009 Rev1_28100 256 256 257 0 0 1.66191435166461e-016 -.0277
4499459273142 .9996150335379364 1.463314958584214e-017 .9996150335379364 .027744
99459273142 -1 1.001653584396549e-017 1.665334536937735e-016 -.0254 .0406908 .00
635 1 3 ?11 257 257 0 1 249 256 1 266 248 0 0 10 258 263 263 260 0 0 0 0 0 1e3 1
e-008 266 0 0 1 0 1 0 81 1 259 259 3 258 0 263 0 0 262 70 260 260 258 0 0 4 2 20
 4 261 261 1 T74 20 261 2 0 259 263 0 0 0 0 0 0 0 0 0 0 0 0 0 0 0 0 0 0 84 2 262
 2981 1 263 263 9 258 259 0 0 0 264 84 20 264 217-3421-009 Rev1_29100 265 265 26
6 0 0 1.66191435166461e-016 -.02774499459273142 .9996150335379364 1.463314958584
214e-017 .9996150335379364 .02774499459273142 -1 1.001653584396549e-017 1.665334
536937735e-016 .02533645898095843 .03815077439510514 .006349999999999994 1 3 ?11
 266 266 0 1 258 265 1 275 257 0 0 10 267 272 272 269 0 0 0 0 0 1e3 1e-008 275 0
 0 1 0 1 0 81 1 268 268 3 267 0 272 0 0 271 70 269 269 267 0 0 4 2 20 4 270 270
 1 T74 20 270 2 0 268 272 0 0 0 0 0 0 0 0 0 0 0 0 0 0 0 0 0 0 84 2 271 3081 1 27
2 272 9 267 268 0 0 0 273 84 20 273 217-3421-009 Rev1_30100 274 274 275 0 0 1.66
191435166461e-016 -.02774499459273142 .9996150335379364 1.463314958584214e-017 .
9996150335379364 .02774499459273142 -1 1.001653584396549e-017 1.665334536937735e
-016 -.0352894572164429 -.03991054623687606 .006349999999999995 1 3 ?11 275 275
 0 1 267 274 1 284 266 0 0 10 276 281 281 278 0 0 0 0 0 1e3 1e-008 284 0 0 1 0 1
 0 81 1 277 277 3 276 0 281 0 0 280 70 278 278 276 0 0 4 2 20 4 279 279 1 T74 20
 279 2 0 277 281 0 0 0 0 0 0 0 0 0 0 0 0 0 0 0 0 0 0 84 2 280 3181 1 281 281 9 2
76 277 0 0 0 282 84 20 282 217-3421-010 Rev1_31100 283 283 284 0 0 -.08113246185
74063 4.632063644193464e-017 -.9967033277926569 .9967033277926569 1.151600546835
23e-016 -.0811324618574063 1.110223024625157e-016 -1 -5.551115123125783e-017 .05
714999999999999 -.04704080000000002 2.602085213965211e-018 1 3 ?11 284 284 0 1 2
76 283 1 293 275 0 0 10 285 290 290 287 0 0 0 0 0 1e3 1e-008 293 0 0 1 0 1 0 81
 1 286 286 3 285 0 290 0 0 289 70 287 287 285 0 0 4 2 20 4 288 288 1 T74 20 288
 2 0 286 290 0 0 0 0 0 0 0 0 0 0 0 0 0 0 0 0 0 0 84 2 289 3281 1 290 290 9 285 2
86 0 0 0 291 84 20 291 217-3421-010 Rev1_32100 292 292 293 0 0 .0077264076283139
59 -1.345617154127314e-017 .9999701508670953 -.9999701508670953 9.44565834399162
2e-019 .007726407628313959 -1.048505506372428e-018 -1 -1.344847178555206e-017 -.
05714999999999999 -.04704080000000002 -2.581509202664436e-018 1 3 ?11 293 293 0
 1 285 292 1 302 284 0 0 10 294 299 299 296 0 0 0 0 0 1e3 1e-008 302 0 0 1 0 1 0
 81 1 295 295 3 294 0 299 0 0 298 70 296 296 294 0 0 4 2 20 4 297 297 1 T74 20 2
97 2 0 295 299 0 0 0 0 0 0 0 0 0 0 0 0 0 0 0 0 0 0 84 2 298 3381 1 299 299 9 294
 295 0 0 0 300 84 30 300 217-3421-011 Rev2_97633A200_33100 301 301 302 0 0 -1.38
777878078145e-017 .7176866109818783 .6963662315314739 -2.542227526591151e-032 .6
963662315314739 -.7176866109818783 -1 -9.959902499716038e-018 -9.664022797721203
e-018 5.992428775414281e-020 -.0470408 -.0004445000000000005 1 3 ?11 302 302 0 1
 294 301 1 311 293 0 0 10 303 308 308 305 0 0 0 0 0 1e3 1e-008 311 0 0 1 0 1 0 8
1 1 304 304 3 303 0 308 0 0 307 70 305 305 303 0 0 4 2 20 4 306 306 1 T74 20 306
 2 0 304 308 0 0 0 0 0 0 0 0 0 0 0 0 0 0 0 0 0 0 84 2 307 3481 1 308 308 9 303 3
04 0 0 0 309 84 25 309 217-2614-002_98430A132_34100 310 310 311 0 0 3.6500964270
42933e-017 .7876247901746539 .6161551670661641 1.935147724167423e-016 .616155167
0661641 -.7876247901746539 -1 1.47984191252878e-016 -1.299267742823101e-016 -3.1
77050952078874e-005 .03942078719755256 .026352 1 3 ?11 311 311 0 1 303 310 1 320
 302 0 0 10 312 317 317 314 0 0 0 0 0 1e3 1e-008 320 0 0 1 0 1 0 81 1 313 313 3
 312 0 317 0 0 316 70 314 314 312 0 0 4 2 20 4 315 315 1 T74 20 315 2 0 313 317
 0 0 0 0 0 0 0 0 0 0 0 0 0 0 0 0 0 0 84 2 316 3581 1 317 317 9 312 313 0 0 0 318
 84 25 318 217-2614-002_98430A132_35100 319 319 320 0 0 2.882169948224979e-017 .
4191058932570591 .9079373603047749 1.137346581884727e-016 .9079373603047749 -.41
91058932570591 -1 1.153432894375026e-016 -2.149856776695479e-017 .03663879581747
763 -.01454641239911693 .026352 1 3 ?11 320 320 0 1 312 319 1 329 311 0 0 10 321
 326 326 323 0 0 0 0 0 1e3 1e-008 329 0 0 1 0 1 0 81 1 322 322 3 321 0 326 0 0 3
25 70 323 323 321 0 0 4 2 20 4 324 324 1 T74 20 324 2 0 322 326 0 0 0 0 0 0 0 0
 0 0 0 0 0 0 0 0 0 0 84 2 325 3681 1 326 326 9 321 322 0 0 0 327 84 25 327 217-2
614-002_98430A132_36100 328 328 329 0 0 -1.387778780781446e-017 .343437254799887
7 .9391756236271878 1.387778780781446e-016 .9391756236271878 -.3434372547998877
 -1 1.255706508422881e-016 -6.069517349308141e-017 -.03663879581747764 -.0145464
1239911694 .026352 1 3 ?11 329 329 0 1 321 328 1 338 320 0 0 10 330 335 335 332
 0 0 0 0 0 1e3 1e-008 338 0 0 1 0 1 0 81 1 331 331 3 330 0 335 0 0 334 70 332 33
2 330 0 0 4 2 20 4 333 333 1 T74 20 333 2 0 331 335 0 0 0 0 0 0 0 0 0 0 0 0 0 0
 0 0 0 0 84 2 334 3781 1 335 335 9 330 331 0 0 0 336 84 20 336 217-2761-001 rev1
_37100 337 337 338 0 0 .9985879463684696 .05312356696987203 -5.89538867242548e-0
18 -.05312356696987203 .9985879463684696 -1.108183129114803e-016 3.9288970865499
61e-032 1.109750155852466e-016 1 .03684066537196315 -.01075177820291676 .0161 1
 3 ?11 338 338 0 1 330 337 1 347 329 0 0 10 339 344 344 341 0 0 0 0 0 1e3 1e-008
 347 0 0 1 0 1 0 81 1 340 340 3 339 0 344 0 0 343 70 341 341 339 0 0 4 2 20 4 34
2 342 1 T74 20 342 2 0 340 344 0 0 0 0 0 0 0 0 0 0 0 0 0 0 0 0 0 0 84 2 343 3881
 1 344 344 9 339 340 0 0 0 345 84 20 345 217-2761-001 rev1_38100 346 346 347 0 0
 .9985879463684697 -.05312356696987132 8.823962649775733e-018 .05312356696987132
 .9985879463684697 -1.65868055250684e-016 3.975119405215255e-031 1.6610260103167
74e-016 1 -.03684066537196317 -.01075177820291676 .0161 1 3 ?11 347 347 0 1 339
 346 1 356 338 0 0 10 348 353 353 350 0 0 0 0 0 1e3 1e-008 356 0 0 1 0 1 0 81 1
 349 349 3 348 0 353 0 0 352 70 350 350 348 0 0 4 2 20 4 351 351 1 T74 20 351 2
 0 349 353 0 0 0 0 0 0 0 0 0 0 0 0 0 0 0 0 0 0 84 2 352 3981 1 353 353 9 348 349
 0 0 0 354 84 20 354 217-2761-001 rev1_39100 355 355 356 0 0 .05000050403336351
 -.9987491925385521 -9.738861824366426e-018 .9987491925385521 .05000050403336351
 1.077891850269044e-017 -1.027848815107133e-017 -1.026563174139957e-017 1 .00376
34764221257 .03923078528222579 .0161 1 3 ?11 356 356 0 1 348 355 1 365 347 0 0 1
0 357 362 362 359 0 0 0 0 0 1e3 1e-008 365 0 0 1 0 1 0 81 1 358 358 3 357 0 362
 0 0 361 70 359 359 357 0 0 4 2 20 4 360 360 1 T74 20 360 2 0 358 362 0 0 0 0 0
 0 0 0 0 0 0 0 0 0 0 0 0 0 84 2 361 4081 1 362 362 9 357 358 0 0 0 363 84 25 363
 217-2614-002_98430A132_40100 364 364 365 0 0 3.650096427042933e-017 .7876247901
746539 .6161551670661641 1.935147724167423e-016 .6161551670661641 -.787624790174
6539 -1 1.47984191252878e-016 -1.299267742823101e-016 .03663879581747762 -.01454
641239911693 .006285999999999998 1 3 ?11 365 365 0 1 357 364 1 374 356 0 0 10 36
6 371 371 368 0 0 0 0 0 1e3 1e-008 374 0 0 1 0 1 0 81 1 367 367 3 366 0 371 0 0
 370 70 368 368 366 0 0 4 2 20 4 369 369 1 T74 20 369 2 0 367 371 0 0 0 0 0 0 0
 0 0 0 0 0 0 0 0 0 0 0 84 2 370 4181 1 371 371 9 366 367 0 0 0 372 84 25 372 217
-2614-002_98430A132_41100 373 373 374 0 0 4.178492002101922e-017 .91381094108248
53 .4061398330106795 1.966895979157155e-016 .4061398330106795 -.9138109410824853
 -1 1.180669975398903e-016 -1.627665861327943e-016 -3.177050952079028e-005 .0394
2078719755258 .006286000000000009 1 3 ?11 374 374 0 1 366 373 1 383 365 0 0 10 3
75 380 380 377 0 0 0 0 0 1e3 1e-008 383 0 0 1 0 1 0 81 1 376 376 3 375 0 380 0 0
 379 70 377 377 375 0 0 4 2 20 4 378 378 1 T74 20 378 2 0 376 380 0 0 0 0 0 0 0
 0 0 0 0 0 0 0 0 0 0 0 84 2 379 4281 1 380 380 9 375 376 0 0 0 381 84 25 381 217
-2614-002_98430A132_42100 382 382 383 0 0 3.665643377478213e-017 .79241996620325
78 .6099758988373456 1.936354183594083e-016 .6099758988373456 -.7924199662032578
 -1 1.471602283734703e-016 -1.310810305321716e-016 -.03663879581747766 -.0145464
1239911694 .006285999999999998 1 3 ?11 383 383 0 1 375 382 1 0 374 0 0 81 1 384
 384 9 1 0 0 0 0 387 70 385 385 1 0 0 4 1 20 4 386 386 1 T74 20 386 1 0 384 0 0
 0 0 0 0 0 0 0 0 0 0 0 0 0 0 0 0 0 84 17 387 217-3421-STEP.iam1 0 