**ABCDEFGHIJKLMNOPQRSTUVWXYZabcdefghijklmnopqrstuvwxyz**************************
**PARASOLID !"#$%&'()*+,-./:;<=>?@[\]^_`{|}~0123456789**************************
**PART1;
MC=unknown;
MC_MODEL=unknown;
MC_ID=unknown;
OS=unknown;
OS_RELEASE=unknown;
FRU=unknown;
APPL=File generated by HOOPS Exchange Version 9.1.2;
SITE=unknown;
USER=unknown;
FORMAT=text;
GUISE=transmit;
KEY=SS-Gearbox;
FILE=c:\tempstorage\7145050447677285\SS-Gearbox.iam.x_t;
DATE=unknown;
**PART2;
SCH=SCH_1100000_11004;
USFLD_SIZE=0;
**PART3;
**END_OF_HEADER*****************************************************************
T51 : TRANSMIT FILE created by modeller version 110000017 SCH_1100000_110040 10
 1 403 402 403 0 0 0 0 0 1e3 1e-008 0 0 0 1 0 1 401 10 2 398 398 395 0 0 0 0 0 1
e3 1e-008 401 0 0 1 0 1 15 10 3 12 12 7 0 0 0 0 0 1e3 1e-008 15 0 0 1 0 1 0 80 1
 4 0 5 9000 0 0 0 0 3 6 0 0 TFTTTTTTFFFFTT3 79 25 5 H3DX_BRIDGE/PERSISTENT_ID81
 1 6 6 4 3 0 12 0 0 9 70 7 7 3 0 0 4 2 20 4 8 8 1 T74 20 8 2 0 6 12 0 0 0 0 0 0
 0 0 0 0 0 0 0 0 0 0 0 0 84 1 9 180 1 10 4 11 8017 0 0 0 0 0 0 0 0 TTTTTTTTTTTTT
F3 79 13 11 SDL/TYSA_NAME81 1 12 12 10 3 6 0 0 0 13 84 10 13 217-2731_1100 14 14
 15 0 0 .7511822268028854 -1.019073138516421e-017 -.6600948887360502 -.660094888
7360502 1.198025902845683e-016 -.7511822268028854 8.673617379884039e-017 1 8.326
672684688675e-017 8.812395257962182e-020 -.0470408 -8.673617379884036e-019 1 3 ?
11 15 15 0 1 3 14 2 24 0 0 0 10 16 21 21 18 0 0 0 0 0 1e3 1e-008 24 0 0 1 0 1 0
 81 1 17 17 4 16 0 21 0 0 20 70 18 18 16 0 0 4 2 20 4 19 19 1 T74 20 19 2 0 17 2
1 0 0 0 0 0 0 0 0 0 0 0 0 0 0 0 0 0 0 84 1 20 281 1 21 21 10 16 17 0 0 0 22 84 1
0 22 217-2733_2100 23 23 24 0 0 1.792722578564601e-032 -.9315523092590302 .36360
73364416184 -6.842277657836021e-049 .3636073364416184 .9315523092590302 -1 -1.67
0014857922657e-032 6.518470817706242e-033 -1.232595164407831e-034 -2.46519032881
5662e-034 .0079375 1 3 ?11 24 24 0 1 16 23 2 33 15 0 0 10 25 30 30 27 0 0 0 0 0
 1e3 1e-008 33 0 0 1 0 1 0 81 1 26 26 4 25 0 30 0 0 29 70 27 27 25 0 0 4 2 20 4
 28 28 1 T74 20 28 2 0 26 30 0 0 0 0 0 0 0 0 0 0 0 0 0 0 0 0 0 0 84 1 29 381 1 3
0 30 10 25 26 0 0 0 31 84 10 31 217-2733_3100 32 32 33 0 0 -2.151618118990309e-0
32 .8132841952369556 -.5818666666666665 -6.84227765783602e-048 .5818666666666665
 .8132841952369556 1 1.749877010360286e-032 -1.251954862836494e-032 -2.959594672
084353e-033 1.479114197289397e-033 .061976 1 3 ?11 33 33 0 1 25 32 2 42 24 0 0 1
0 34 39 39 36 0 0 0 0 0 1e3 1e-008 42 0 0 1 0 1 0 81 1 35 35 4 34 0 39 0 0 38 70
 36 36 34 0 0 4 2 20 4 37 37 1 T74 20 37 2 0 35 39 0 0 0 0 0 0 0 0 0 0 0 0 0 0 0
 0 0 0 84 1 38 481 1 39 39 10 34 35 0 0 0 40 84 10 40 217-2734_4100 41 41 42 0 0
 1 - 0 0 0 -1 0 1 0 0 -.0470408 .0904875 1 3 ?11 42 42 0 1 34 41 2 51 33 0 0 10
 43 48 48 45 0 0 0 0 0 1e3 1e-008 51 0 0 1 0 1 0 81 1 44 44 4 43 0 48 0 0 47 70
 45 45 43 0 0 4 2 20 4 46 46 1 T74 20 46 2 0 44 48 0 0 0 0 0 0 0 0 0 0 0 0 0 0 0
 0 0 0 84 1 47 581 1 48 48 10 43 44 0 0 0 49 84 18 49 217-3099-001_12t_5100 50 5
0 51 0 0 .9985879463684697 -.05312356696987138 0 .05312356696987138 .99858794636
84697 - 0 0 1 -.03663879581747765 -.01454641239911694 .015811 1 3 ?11 51 51 0 1
 43 50 2 60 42 0 0 10 52 57 57 54 0 0 0 0 0 1e3 1e-008 60 0 0 1 0 1 0 81 1 53 53
 4 52 0 57 0 0 56 70 54 54 52 0 0 4 2 20 4 55 55 1 T74 20 55 2 0 53 57 0 0 0 0 0
 0 0 0 0 0 0 0 0 0 0 0 0 0 84 1 56 681 1 57 57 10 52 53 0 0 0 58 84 18 58 217-30
99-001_12t_6100 59 59 60 0 0 .9985879463684697 .05312356696987148 - -.0531235669
6987148 .9985879463684697 0 0 0 1 .03663879581747763 -.01454641239911693 .015811
 1 3 ?11 60 60 0 1 52 59 2 69 51 0 0 10 61 66 66 63 0 0 0 0 0 1e3 1e-008 69 0 0
 1 0 1 0 81 1 62 62 4 61 0 66 0 0 65 70 63 63 61 0 0 4 2 20 4 64 64 1 T74 20 64
 2 0 62 66 0 0 0 0 0 0 0 0 0 0 0 0 0 0 0 0 0 0 84 1 65 881 1 66 66 10 61 62 0 0
 0 67 84 18 67 217-3100-001_14t_8100 68 68 69 0 0 -.4133914402382538 .9105534125
671828 1.112336021339473e-017 -.9105534125671828 -.4133914402382538 -3.327009668
190916e-017 -2.569589817124836e-017 -2.388198678572097e-017 1 1.804716457513177e
-018 2.112651139301242e-019 .02701925 1 3 ?11 69 69 0 1 61 68 2 78 60 0 0 10 70
 75 75 72 0 0 0 0 0 1e3 1e-008 78 0 0 1 0 1 0 81 1 71 71 4 70 0 75 0 0 74 70 72
 72 70 0 0 4 2 20 4 73 73 1 T74 20 73 2 0 71 75 0 0 0 0 0 0 0 0 0 0 0 0 0 0 0 0
 0 0 84 1 74 981 1 75 75 10 70 71 0 0 0 76 84 23 76 217-2711-002 Rev1_50t_9100 7
7 77 78 0 0 -.413391440238254 .9105534125671828 1.112336021339475e-017 -.9105534
125671828 -.413391440238254 -3.327009668190915e-017 -2.569589817124834e-017 -2.3
88198678572099e-017 1 1.663732316152486e-018 6.329502813346526e-019 .01434465 1
 3 ?11 78 78 0 1 70 77 2 87 69 0 0 10 79 84 84 81 0 0 0 0 0 1e3 1e-008 87 0 0 1
 0 1 0 81 1 80 80 4 79 0 84 0 0 83 70 81 81 79 0 0 4 2 20 4 82 82 1 T74 20 82 2
 0 80 84 0 0 0 0 0 0 0 0 0 0 0 0 0 0 0 0 0 0 84 2 83 1081 1 84 84 10 79 80 0 0 0
 85 84 24 85 217-2714-002 Rev1_60t_10100 86 86 87 0 0 .9209526070550793 .3896746
021470384 - -.3896746021470384 .9209526070550793 0 0 0 1 -2.849928626424969e-019
 -.0470408 .0269621 1 3 ?11 87 87 0 1 79 86 2 96 78 0 0 10 88 93 93 90 0 0 0 0 0
 1e3 1e-008 96 0 0 1 0 1 0 81 1 89 89 4 88 0 93 0 0 92 70 90 90 88 0 0 4 2 20 4
 91 91 1 T74 20 91 2 0 89 93 0 0 0 0 0 0 0 0 0 0 0 0 0 0 0 0 0 0 84 2 92 1181 1
 93 93 10 88 89 0 0 0 94 84 11 94 217-2000_11100 95 95 96 0 0 3.130646189510731e
-018 -.05312356696987143 .9985879463684697 1.665040247369795e-016 .9985879463684
697 .05312356696987143 -1 1.661026010316777e-016 1.197151325805785e-017 -.036638
79581747765 -.01454641239911694 -1.616920852239404e-018 1 3 ?11 96 96 0 1 88 95
 2 105 87 0 0 10 97 102 102 99 0 0 0 0 0 1e3 1e-008 105 0 0 1 0 1 0 81 1 98 98 4
 97 0 102 0 0 101 70 99 99 97 0 0 4 2 20 4 100 100 1 T74 20 100 2 0 98 102 0 0 0
 0 0 0 0 0 0 0 0 0 0 0 0 0 0 0 84 2 101 1381 1 102 102 10 97 98 0 0 0 103 84 11
 103 217-2000_13100 104 104 105 0 0 2.659969900690476e-018 .05312356696987157 .9
985879463684697 1.109904329399877e-016 .9985879463684697 -.05312356696987157 -1
 1.109750155852469e-016 -3.239993816770031e-018 .03663879581747764 -.01454641239
911693 1.925929944387236e-034 1 3 ?11 105 105 0 1 97 104 2 114 96 0 0 10 106 111
 111 108 0 0 0 0 0 1e3 1e-008 114 0 0 1 0 1 0 81 1 107 107 4 106 0 111 0 0 110 7
0 108 108 106 0 0 4 2 20 4 109 109 1 T74 20 109 2 0 107 111 0 0 0 0 0 0 0 0 0 0
 0 0 0 0 0 0 0 0 84 2 110 1481 1 111 111 10 106 107 0 0 0 112 84 20 112 217-3421
-001 Rev1_14100 113 113 114 0 0 1 - 0 0 1 0 - 0 1 0 0 0 1 0 ?11 114 114 0 1 106
 113 2 123 105 0 0 10 115 120 120 117 0 0 0 0 0 1e3 1e-008 123 0 0 1 0 1 0 81 1
 116 116 4 115 0 120 0 0 119 70 117 117 115 0 0 4 2 20 4 118 118 1 T74 20 118 2
 0 116 120 0 0 0 0 0 0 0 0 0 0 0 0 0 0 0 0 0 0 84 2 119 1581 1 120 120 10 115 11
6 0 0 0 121 84 20 121 217-3421-002 Rev1_15100 122 122 123 0 0 -1 1.1102230246251
57e-016 0 1.110223024625157e-016 1 0 0 0 -1 -1.97215226305253e-033 -4.9303806576
31324e-034 .0699135 1 3 ?11 123 123 0 1 115 122 2 132 114 0 0 10 124 129 129 126
 0 0 0 0 0 1e3 1e-008 132 0 0 1 0 1 0 81 1 125 125 4 124 0 129 0 0 128 70 126 12
6 124 0 0 4 2 20 4 127 127 1 T74 20 127 2 0 125 129 0 0 0 0 0 0 0 0 0 0 0 0 0 0
 0 0 0 0 84 2 128 1681 1 129 129 10 124 125 0 0 0 130 84 20 130 217-3421-004 Rev
1_16100 131 131 132 0 0 -.4144596420447344 -.9100676926010234 0 .910067692601023
4 -.4144596420447344 0 0 0 1 6.609296443471638e-020 -.0470408 .09048749999999999
 1 3 ?11 132 132 0 1 124 131 2 141 123 0 0 10 133 138 138 135 0 0 0 0 0 1e3 1e-0
08 141 0 0 1 0 1 0 81 1 134 134 4 133 0 138 0 0 137 70 135 135 133 0 0 4 2 20 4
 136 136 1 T74 20 136 2 0 134 138 0 0 0 0 0 0 0 0 0 0 0 0 0 0 0 0 0 0 84 2 137 1
781 1 138 138 10 133 134 0 0 0 139 84 20 139 217-3422-001 Rev1_17100 140 140 141
 0 0 -.9105534125671828 -.413391440238254 5.762549782579551e-017 .41339144023825
4 -.9105534125671828 2.157041537713703e-032 5.247109369616087e-017 2.38218875406
52e-017 1 1.966830272666683e-018 9.244463733058732e-035 .03495675 1 3 ?11 141 14
1 0 1 133 140 2 150 132 0 0 10 142 147 147 144 0 0 0 0 0 1e3 1e-008 150 0 0 1 0
 1 0 81 1 143 143 4 142 0 147 0 0 146 70 144 144 142 0 0 4 2 20 4 145 145 1 T74
 20 145 2 0 143 147 0 0 0 0 0 0 0 0 0 0 0 0 0 0 0 0 0 0 84 2 146 1881 1 147 147
 10 142 143 0 0 0 148 84 20 148 217-3422-004 Rev2_18100 149 149 150 0 0 1 - 0 0
 1 0 - 0 1 1.734723475976807e-018 -.04704080000000002 .09683750000000002 1 1 ?11
 150 150 0 1 142 149 2 159 141 0 0 10 151 156 156 153 0 0 0 0 0 1e3 1e-008 159 0
 0 1 0 1 0 81 1 152 152 4 151 0 156 0 0 155 70 153 153 151 0 0 4 2 20 4 154 154
 1 T74 20 154 2 0 152 156 0 0 0 0 0 0 0 0 0 0 0 0 0 0 0 0 0 0 84 2 155 1981 1 15
6 156 10 151 152 0 0 0 157 84 20 157 217-3421-009 Rev1_19100 158 158 159 0 0 -9.
684181523197753e-017 .8531193728492298 -.5217157613771476 2.883582890391177e-017
 -.5217157613771476 -.8531193728492298 -1 -9.766173510783115e-017 2.592349709680
331e-017 .03528945721644292 -.03991054623687607 .006350000000000002 1 3 ?11 159
 159 0 1 151 158 2 168 150 0 0 10 160 165 165 162 0 0 0 0 0 1e3 1e-008 168 0 0 1
 0 1 0 81 1 161 161 4 160 0 165 0 0 164 70 162 162 160 0 0 4 2 20 4 163 163 1 T7
4 20 163 2 0 161 165 0 0 0 0 0 0 0 0 0 0 0 0 0 0 0 0 0 0 84 2 164 2281 1 165 165
 10 160 161 0 0 0 166 84 20 166 217-3421-009 Rev1_22100 167 167 168 0 0 -9.68418
1523197753e-017 .8531193728492298 -.5217157613771476 2.883582890391177e-017 -.52
17157613771476 -.8531193728492298 -1 -9.766173510783115e-017 2.592349709680331e-
017 -.03528945721644292 -.03991054623687606 .00635 1 3 ?11 168 168 0 1 160 167 2
 177 159 0 0 10 169 174 174 171 0 0 0 0 0 1e3 1e-008 177 0 0 1 0 1 0 81 1 170 17
0 4 169 0 174 0 0 173 70 171 171 169 0 0 4 2 20 4 172 172 1 T74 20 172 2 0 170 1
74 0 0 0 0 0 0 0 0 0 0 0 0 0 0 0 0 0 0 84 2 173 2381 1 174 174 10 169 170 0 0 0
 175 84 20 175 217-3421-010 Rev1_23100 176 176 177 0 0 .6081607106865679 -9.9749
40047628614e-017 .7938139265452634 -.7938139265452634 -1.471418069599835e-017 .6
081607106865679 -4.898334473003028e-017 -1 -8.81310498518656e-017 .05715 -.04704
08 -1.517368422826029e-017 1 3 ?11 177 177 0 1 169 176 2 186 168 0 0 10 178 183
 183 180 0 0 0 0 0 1e3 1e-008 186 0 0 1 0 1 0 81 1 179 179 4 178 0 183 0 0 182 7
0 180 180 178 0 0 4 2 20 4 181 181 1 T74 20 181 2 0 179 183 0 0 0 0 0 0 0 0 0 0
 0 0 0 0 0 0 0 0 84 2 182 2481 1 183 183 10 178 179 0 0 0 184 84 20 184 217-3421
-010 Rev1_24100 185 185 186 0 0 .6081607106865679 -9.974940047628614e-017 .79381
39265452634 -.7938139265452634 -1.471418069599835e-017 .6081607106865679 -4.8983
34473003028e-017 -1 -8.81310498518656e-017 -.05715 -.04704079999999999 -2.602085
213965211e-018 1 3 ?11 186 186 0 1 178 185 2 195 177 0 0 10 187 192 192 189 0 0
 0 0 0 1e3 1e-008 195 0 0 1 0 1 0 81 1 188 188 4 187 0 192 0 0 191 70 189 189 18
7 0 0 4 2 20 4 190 190 1 T74 20 190 2 0 188 192 0 0 0 0 0 0 0 0 0 0 0 0 0 0 0 0
 0 0 84 2 191 2581 1 192 192 10 187 188 0 0 0 193 84 30 193 217-3421-011 Rev2_97
633A200_25100 194 194 195 0 0 8.673617379884039e-019 -.2448719211856561 .9695554
353490294 6.01853107621011e-034 .9695554353490294 .2448719211856561 -1 -2.123925
351441496e-019 8.40955287480438e-019 6.647850672725221e-020 -.0470408 -.00044450
00000000005 1 3 ?11 195 195 0 1 187 194 2 204 186 0 0 10 196 201 201 198 0 0 0 0
 0 1e3 1e-008 204 0 0 1 0 1 0 81 1 197 197 4 196 0 201 0 0 200 70 198 198 196 0
 0 4 2 20 4 199 199 1 T74 20 199 2 0 197 201 0 0 0 0 0 0 0 0 0 0 0 0 0 0 0 0 0 0
 84 2 200 2681 1 201 201 10 196 197 0 0 0 202 84 20 202 217-3422-005 Rev1_26100
 203 203 204 0 0 0 -.7097629882753516 -.7044405585103993 0 -.7044405585103993 .7
097629882753516 -1 - 0 .05715 -.04704080000000002 .073025 1 3 ?11 204 204 0 1 19
6 203 2 213 195 0 0 10 205 210 210 207 0 0 0 0 0 1e3 1e-008 213 0 0 1 0 1 0 81 1
 206 206 4 205 0 210 0 0 209 70 207 207 205 0 0 4 2 20 4 208 208 1 T74 20 208 2
 0 206 210 0 0 0 0 0 0 0 0 0 0 0 0 0 0 0 0 0 0 84 2 209 2781 1 210 210 10 205 20
6 0 0 0 211 84 20 211 217-3422-005 Rev1_27100 212 212 213 0 0 0 -.70976298827535
16 -.7044405585103993 0 -.7044405585103993 .7097629882753516 -1 - 0 -.05715 -.04
704079999999999 .073025 1 3 ?11 213 213 0 1 205 212 2 222 204 0 0 10 214 219 219
 216 0 0 0 0 0 1e3 1e-008 222 0 0 1 0 1 0 81 1 215 215 4 214 0 219 0 0 218 70 21
6 216 214 0 0 4 2 20 4 217 217 1 T74 20 217 2 0 215 219 0 0 0 0 0 0 0 0 0 0 0 0
 0 0 0 0 0 0 84 2 218 2881 1 219 219 10 214 215 0 0 0 220 84 20 220 217-3422-006
 Rev1_28100 221 221 222 0 0 -2.77555756156289e-017 -.2756051054518023 -.96127094
29962507 7.703719777548943e-033 -.9612709429962507 .2756051054518023 -1 7.649578
344420866e-018 2.668062834543933e-017 .03801184736134541 .01080861889272374 .069
85 1 3 ?11 222 222 0 1 214 221 2 231 213 0 0 10 223 228 228 225 0 0 0 0 0 1e3 1e
-008 231 0 0 1 0 1 0 81 1 224 224 4 223 0 228 0 0 227 70 225 225 223 0 0 4 2 20
 4 226 226 1 T74 20 226 2 0 224 228 0 0 0 0 0 0 0 0 0 0 0 0 0 0 0 0 0 0 84 2 227
 2981 1 228 228 10 223 224 0 0 0 229 84 20 229 217-3422-006 Rev1_29100 230 230 2
31 0 0 -2.77555756156289e-017 -.2756051054518023 -.9612709429962507 7.7037197775
48943e-033 -.9612709429962507 .2756051054518023 -1 7.649578344420866e-018 2.6680
62834543933e-017 -.0380118473613454 .01080861889272373 .06985 1 3 ?11 231 231 0
 1 223 230 2 240 222 0 0 10 232 237 237 234 0 0 0 0 0 1e3 1e-008 240 0 0 1 0 1 0
 81 1 233 233 4 232 0 237 0 0 236 70 234 234 232 0 0 4 2 20 4 235 235 1 T74 20 2
35 2 0 233 237 0 0 0 0 0 0 0 0 0 0 0 0 0 0 0 0 0 0 84 2 236 3081 1 237 237 10 23
2 233 0 0 0 238 84 20 238 217-3422-007 Rev1_30100 239 239 240 0 0 2.379459466571
408e-016 -.455059065205955 -.8904612552906963 1.376499576728322e-016 .8904612552
906963 -.455059065205955 1 -1.429249404471687e-017 2.745205074158889e-016 .02381
25 -.04704080000000002 .09519928713252103 1 3 ?11 240 240 0 1 232 239 2 249 231
 0 0 10 241 246 246 243 0 0 0 0 0 1e3 1e-008 249 0 0 1 0 1 0 81 1 242 242 4 241
 0 246 0 0 245 70 243 243 241 0 0 4 2 20 4 244 244 1 T74 20 244 2 0 242 246 0 0
 0 0 0 0 0 0 0 0 0 0 0 0 0 0 0 0 84 2 245 3181 1 246 246 10 241 242 0 0 0 247 84
 20 247 217-3422-007 Rev1_31100 248 248 249 0 0 2.325480804306294e-016 -.4923688
898317296 -.8703866246248677 1.476821941616136e-016 .8703866246248677 -.49236888
98317296 1 -1.404116629939244e-017 2.751208567762754e-016 -.0238125 -.0470408000
0000002 .09519928713252103 1 3 ?11 249 249 0 1 241 248 2 258 240 0 0 10 250 255
 255 252 0 0 0 0 0 1e3 1e-008 258 0 0 1 0 1 0 81 1 251 251 4 250 0 255 0 0 254 7
0 252 252 250 0 0 4 2 20 4 253 253 1 T74 20 253 2 0 251 255 0 0 0 0 0 0 0 0 0 0
 0 0 0 0 0 0 0 0 84 2 254 3281 1 255 255 10 250 251 0 0 0 256 84 20 256 217-3422
-002 Rev1_32100 257 257 258 0 0 -.5818666666666668 .8132841952369554 0 -.8132841
952369554 -.5818666666666668 0 0 0 1 -.0380118473613454 .01080861889272373 .0349
885 1 3 ?11 258 258 0 1 250 257 2 267 249 0 0 10 259 264 264 261 0 0 0 0 0 1e3 1
e-008 267 0 0 1 0 1 0 81 1 260 260 4 259 0 264 0 0 263 70 261 261 259 0 0 4 2 20
 4 262 262 1 T74 20 262 2 0 260 264 0 0 0 0 0 0 0 0 0 0 0 0 0 0 0 0 0 0 84 2 263
 3381 1 264 264 10 259 260 0 0 0 265 84 20 265 217-3422-002 Rev1_33100 266 266 2
67 0 0 -.5818666666666665 -.8132841952369556 0 .8132841952369556 -.5818666666666
665 0 0 0 1 .0380118473613454 .01080861889272374 .0349885 1 3 ?11 267 267 0 1 25
9 266 2 276 258 0 0 10 268 273 273 270 0 0 0 0 0 1e3 1e-008 276 0 0 1 0 1 0 81 1
 269 269 4 268 0 273 0 0 272 70 270 270 268 0 0 4 2 20 4 271 271 1 T74 20 271 2
 0 269 273 0 0 0 0 0 0 0 0 0 0 0 0 0 0 0 0 0 0 84 2 272 3481 1 273 273 10 268 26
9 0 0 0 274 84 20 274 217-3422-003 Rev1_34100 275 275 276 0 0 1 - 0 0 1 0 - 0 1
 -.05715 -.0470408 .03492499999999998 1 1 ?11 276 276 0 1 268 275 2 285 267 0 0
 10 277 282 282 279 0 0 0 0 0 1e3 1e-008 285 0 0 1 0 1 0 81 1 278 278 4 277 0 28
2 0 0 281 70 279 279 277 0 0 4 2 20 4 280 280 1 T74 20 280 2 0 278 282 0 0 0 0 0
 0 0 0 0 0 0 0 0 0 0 0 0 0 84 2 281 3581 1 282 282 10 277 278 0 0 0 283 84 20 28
3 217-3422-003 Rev1_35100 284 284 285 0 0 .8531616662499236 -.5216465961181518 0
 .5216465961181518 .8531616662499236 - 0 0 1 .05715 -.0470408 .03492499999999999
 1 3 ?11 285 285 0 1 277 284 2 294 276 0 0 10 286 291 291 288 0 0 0 0 0 1e3 1e-0
08 294 0 0 1 0 1 0 81 1 287 287 4 286 0 291 0 0 290 70 288 288 286 0 0 4 2 20 4
 289 289 1 T74 20 289 2 0 287 291 0 0 0 0 0 0 0 0 0 0 0 0 0 0 0 0 0 0 84 2 290 3
681 1 291 291 10 286 287 0 0 0 292 84 20 292 217-3257-001 Rev1_36100 293 293 294
 0 0 1 - 0 0 1 0 - 0 1 -3.960726061361109e-018 -.04704080000000002 .03477895 1 1
 ?11 294 294 0 1 286 293 2 303 285 0 0 10 295 300 300 297 0 0 0 0 0 1e3 1e-008 3
03 0 0 1 0 1 0 81 1 296 296 4 295 0 300 0 0 299 70 297 297 295 0 0 4 2 20 4 298
 298 1 T74 20 298 2 0 296 300 0 0 0 0 0 0 0 0 0 0 0 0 0 0 0 0 0 0 84 2 299 3781
 1 300 300 10 295 296 0 0 0 301 84 20 301 217-2758-001 Rev1_37100 302 302 303 0
 0 -.3575801423710239 -.9338824560842325 0 .9338824560842325 -.3575801423710239
 0 0 0 1 -1.517883041479706e-017 -.04704080000000002 .05549910160000003 1 3 ?11
 303 303 0 1 295 302 2 312 294 0 0 10 304 309 309 306 0 0 0 0 0 1e3 1e-008 312 0
 0 1 0 1 0 81 1 305 305 4 304 0 309 0 0 308 70 306 306 304 0 0 4 2 20 4 307 307
 1 T74 20 307 2 0 305 309 0 0 0 0 0 0 0 0 0 0 0 0 0 0 0 0 0 0 84 2 308 3881 1 30
9 309 10 304 305 0 0 0 310 84 20 310 217-3259-001 Rev1_38100 311 311 312 0 0 -.3
513172428177284 -.9362564792293558 0 .9362564792293558 -.3513172428177284 0 0 0
 1 -2.15485181781494e-018 -.0470408 .06026160160000003 1 3 ?11 312 312 0 1 304 3
11 2 321 303 0 0 10 313 318 318 315 0 0 0 0 0 1e3 1e-008 321 0 0 1 0 1 0 81 1 31
4 314 4 313 0 318 0 0 317 70 315 315 313 0 0 4 2 20 4 316 316 1 T74 20 316 2 0 3
14 318 0 0 0 0 0 0 0 0 0 0 0 0 0 0 0 0 0 0 84 2 317 3981 1 318 318 10 313 314 0
 0 0 319 84 20 319 217-3261-001 Rev1_39100 320 320 321 0 0 1 - 0 0 1 0 - 0 1 -3.
74049749507499e-018 -.04704080000000002 .0142875 1 1 ?11 321 321 0 1 313 320 2 3
30 312 0 0 10 322 327 327 324 0 0 0 0 0 1e3 1e-008 330 0 0 1 0 1 0 81 1 323 323
 4 322 0 327 0 0 326 70 324 324 322 0 0 4 2 20 4 325 325 1 T74 20 325 2 0 323 32
7 0 0 0 0 0 0 0 0 0 0 0 0 0 0 0 0 0 0 84 2 326 4081 1 327 327 10 322 323 0 0 0 3
28 84 20 328 217-3263-001 Rev1_40100 329 329 330 0 0 .7629182340487329 .64649498
69534666 - -.6464949869534666 .7629182340487329 0 0 0 1 0 -.0470408 .0777875 1 3
 ?11 330 330 0 1 322 329 2 339 321 0 0 10 331 336 336 333 0 0 0 0 0 1e3 1e-008 3
39 0 0 1 0 1 0 81 1 332 332 4 331 0 336 0 0 335 70 333 333 331 0 0 4 2 20 4 334
 334 1 T74 20 334 2 0 332 336 0 0 0 0 0 0 0 0 0 0 0 0 0 0 0 0 0 0 84 2 335 4281
 1 336 336 10 331 332 0 0 0 337 84 20 337 217-2761-001 rev1_42100 338 338 339 0
 0 .9985879463684697 -.05312356696987131 8.823962649775735e-018 .053123566969871
31 .9985879463684697 -1.65868055250684e-016 3.944304526105059e-031 1.66102601031
6774e-016 1 -.03684066537196316 -.01075177820291676 .0161 1 3 ?11 339 339 0 1 33
1 338 2 348 330 0 0 10 340 345 345 342 0 0 0 0 0 1e3 1e-008 348 0 0 1 0 1 0 81 1
 341 341 4 340 0 345 0 0 344 70 342 342 340 0 0 4 2 20 4 343 343 1 T74 20 343 2
 0 341 345 0 0 0 0 0 0 0 0 0 0 0 0 0 0 0 0 0 0 84 2 344 4381 1 345 345 10 340 34
1 0 0 0 346 84 20 346 217-2761-001 rev1_43100 347 347 348 0 0 .9985879463684697
 .05312356696987144 -5.895388672425079e-018 -.05312356696987144 .998587946368469
7 -1.108183129114803e-016 -2.935117235246147e-031 1.109750155852466e-016 1 .0368
4066537196315 -.01075177820291676 .0161 1 3 ?11 348 348 0 1 340 347 2 357 339 0
 0 10 349 354 354 351 0 0 0 0 0 1e3 1e-008 357 0 0 1 0 1 0 81 1 350 350 4 349 0
 354 0 0 353 70 351 351 349 0 0 4 2 20 4 352 352 1 T74 20 352 2 0 350 354 0 0 0
 0 0 0 0 0 0 0 0 0 0 0 0 0 0 0 84 2 353 4581 1 354 354 10 349 350 0 0 0 355 84 2
5 355 217-2614-002_98430A132_45100 356 356 357 0 0 2.775557561562891e-017 -.0781
1067986771293 .9969446933960798 2.636779683484745e-016 .9969446933960798 .078110
67986771293 -1 2.607043444290147e-016 4.826683919599152e-017 .03663879581747765
 -.01454641239911692 .006285999999999997 1 3 ?11 357 357 0 1 349 356 2 366 348 0
 0 10 358 363 363 360 0 0 0 0 0 1e3 1e-008 366 0 0 1 0 1 0 81 1 359 359 4 358 0
 363 0 0 362 70 360 360 358 0 0 4 2 20 4 361 361 1 T74 20 361 2 0 359 363 0 0 0
 0 0 0 0 0 0 0 0 0 0 0 0 0 0 0 84 2 362 4681 1 363 363 10 358 359 0 0 0 364 84 2
5 364 217-2614-002_98430A132_46100 365 365 366 0 0 2.775557561562891e-017 -.0781
1067986771293 .9969446933960798 2.636779683484745e-016 .9969446933960798 .078110
67986771293 -1 2.607043444290147e-016 4.826683919599152e-017 -.03663879581747765
 -.01454641239911694 .006285999999999994 1 3 ?11 366 366 0 1 358 365 2 375 357 0
 0 10 367 372 372 369 0 0 0 0 0 1e3 1e-008 375 0 0 1 0 1 0 81 1 368 368 4 367 0
 372 0 0 371 70 369 369 367 0 0 4 2 20 4 370 370 1 T74 20 370 2 0 368 372 0 0 0
 0 0 0 0 0 0 0 0 0 0 0 0 0 0 0 84 2 371 4781 1 372 372 10 367 368 0 0 0 373 84 2
5 373 217-2614-002_98430A132_47100 374 374 375 0 0 2.77555756156289e-017 -.07811
067986771296 .9969446933960798 2.636779683484745e-016 .9969446933960798 .0781106
7986771296 -1 2.607043444290147e-016 4.826683919599151e-017 -.03663879581747765
 -.01454641239911694 .02640279999999999 1 3 ?11 375 375 0 1 367 374 2 384 366 0
 0 10 376 381 381 378 0 0 0 0 0 1e3 1e-008 384 0 0 1 0 1 0 81 1 377 377 4 376 0
 381 0 0 380 70 378 378 376 0 0 4 2 20 4 379 379 1 T74 20 379 2 0 377 381 0 0 0
 0 0 0 0 0 0 0 0 0 0 0 0 0 0 0 84 2 380 4881 1 381 381 10 376 377 0 0 0 382 84 2
5 382 217-2614-002_98430A132_48100 383 383 384 0 0 2.77555756156289e-017 -.07811
067986771296 .9969446933960798 2.636779683484745e-016 .9969446933960798 .0781106
7986771296 -1 2.607043444290147e-016 4.826683919599151e-017 .03663879581747763 -
.01454641239911693 .02640279999999999 1 3 ?11 384 384 0 1 376 383 2 393 375 0 0
 10 385 390 390 387 0 0 0 0 0 1e3 1e-008 393 0 0 1 0 1 0 81 1 386 386 4 385 0 39
0 0 0 389 70 387 387 385 0 0 4 2 20 4 388 388 1 T74 20 388 2 0 386 390 0 0 0 0 0
 0 0 0 0 0 0 0 0 0 0 0 0 0 84 2 389 5081 1 390 390 10 385 386 0 0 0 391 84 20 39
1 217-3257-001 Rev1_50100 392 392 393 0 0 1 - 0 0 1 0 - 0 1 -2.15485181781494e-0
18 -.0470408 .06429375 1 1 ?11 393 393 0 1 385 392 2 0 384 0 0 81 1 394 394 4 2
 0 398 0 0 397 70 395 395 2 0 0 4 2 20 4 396 396 1 T74 20 396 2 0 394 398 0 0 0
 0 0 0 0 0 0 0 0 0 0 0 0 0 0 0 84 1 397 281 1 398 398 10 2 394 0 0 0 399 84 15 3
99 217-3422-STEP:1100 400 400 401 0 0 1 - 0 0 1 0 - 0 1 -.003229949266876351 .01
37514133370562 -.02869799529039623 1 1 ?11 401 401 0 1 2 400 1 0 0 0 0 81 1 402
 402 10 1 0 0 0 0 405 70 403 403 1 0 0 4 1 20 4 404 404 1 T74 20 404 1 0 402 0 0
 0 0 0 0 0 0 0 0 0 0 0 0 0 0 0 0 0 84 14 405 SS-Gearbox.iam1 0 